<?xml version="1.0" encoding="utf-8"?>
<!-- Generator: Adobe Illustrator 21.1.0, SVG Export Plug-In . SVG Version: 6.00 Build 0)  -->
<svg version="1.1" id="Layer_1" xmlns="http://www.w3.org/2000/svg" xmlns:xlink="http://www.w3.org/1999/xlink" x="0px" y="0px"
	 viewBox="0 0 20 70" enable-background="new 0 0 20 70" xml:space="preserve">
<path fill="#FFFFFF" d="M13.4,70c-1.6-0.3-2.2-1.4-1.9-2.7L15,46.7c0.2-1.3,1.8-2.1,3.1-1.9c1.3,0.2,2.2,1.4,1.9,2.7L16.3,68
	C16,69.2,15.1,70.2,13.4,70z"/>
<path fill="#FFFFFF" d="M3.7,70c-0.1,0-0.3,0-0.4,0c-1.2-0.2-2-1.5-1.8-2.7L12.5,2c0.2-1.3,1.6-2.1,2.9-1.9c1.2,0.2,2,1.5,1.8,2.7
	L5.9,68.1C5.7,69.2,4.7,70,3.7,70z M2,25.2c-1.6-0.3-2.2-1.4-1.9-2.7L3.5,1.9C3.7,0.6,5.3-0.2,6.6,0s2.2,1.4,1.9,2.7L4.8,23.3
	C4.6,24.4,3.6,25.4,2,25.2z M13.4,70c-1.6-0.3-2.2-1.4-1.9-2.7L15,46.7c0.2-1.3,1.8-2.1,3.1-1.9c1.3,0.2,2.2,1.4,1.9,2.7l-3.7,20.6
	C16,69.2,15.1,70.2,13.4,70L13.4,70z"/>
</svg>
