<svg width="48" height="40" viewBox="0 0 48 40" fill="none" xmlns="http://www.w3.org/2000/svg"><path fill-rule="evenodd" clip-rule="evenodd" d="M45.992 13.2H44V7.6h-1.6V4.4H20.069l-2.857-4H2.186C.98.4 0 1.38 0 2.585v34.95h.005A2.037 2.037 0 0 0 2.052 39.6h35.807c.925 0 1.74-.623 1.96-1.45L48 15.718v-.142c0-1.377-.845-2.377-2.008-2.377zm-3.592 0H36v-.8a.8.8 0 1 0-1.6 0v.8h-4v-.8a.8.8 0 1 0-1.6 0v.8h-4v-.8a.8.8 0 1 0-1.6 0v.8h-4v-.8a.8.8 0 1 0-1.6 0v.8h-4v-.8a.8.8 0 1 0-1.6 0v.8h-1.815a2.046 2.046 0 0 0-1.385.54V9.2h33.6v4zM4 14v12.234l3.971-10.888.254-.696c.063-.237.18-.456.33-.65H4zm3.2-1.6H5.131l.469-.469 1.6-1.6V12.4zm33.6-4.8V6H5.6v3.669L7.67 7.6H40.8zM1.6 2.586c0-.324.263-.586.586-.586h14.202l1.714 2.4H4v6.869l-1.6 1.6v17.668l-.8 2.182V2.586zM37.86 38a.453.453 0 0 0 .435-.334l8.099-22.21c-.02-.22-.098-.656-.402-.656H10.185a.453.453 0 0 0-.436.333l-.021.066L2.4 35.289l-.805 2.207c-.03.121.048.26.099.326.05.067.164.178.358.178h35.807z" fill="#2BA4A7"/></svg>