<svg width="48" height="40" viewBox="0 0 48 40" fill="none" xmlns="http://www.w3.org/2000/svg">
<path fill-rule="evenodd" clip-rule="evenodd" d="M45.9919 12.8H44V7.19995H42.3999V4H20.0688L17.2119 0H2.18555C0.980713 0 0 0.980713 0 2.18555V37.1353H0.00488281C0.000732422 37.5857 0.140869 38.0264 0.422363 38.3953C0.814453 38.9072 1.40796 39.2 2.052 39.2H37.8591C38.7839 39.2 39.5984 38.5769 39.8191 37.7495L48 15.3191V15.1775C48 13.8 47.1553 12.8 45.9919 12.8ZM42.4001 12.8H36V12C36 11.5576 35.6416 11.2 35.2 11.2C34.7585 11.2 34.4001 11.5576 34.4001 12V12.8H30.4001V12C30.4001 11.5576 30.0417 11.2 29.6001 11.2C29.1584 11.2 28.8 11.5576 28.8 12V12.8H24.8V12C24.8 11.5576 24.4417 11.2 24 11.2C23.5583 11.2 23.2 11.5576 23.2 12V12.8H19.2V12C19.2 11.5576 18.8416 11.2 18.4001 11.2C17.9585 11.2 17.6001 11.5576 17.6001 12V12.8H13.6001V12C13.6001 11.5576 13.2417 11.2 12.8 11.2C12.3584 11.2 12 11.5576 12 12V12.8H10.1848C10.0706 12.8 9.95776 12.8096 9.84717 12.8281C9.448 12.8945 9.08716 13.0801 8.80005 13.3394V8.80005H42.4001V12.8ZM4 13.6001V25.8345L7.97119 14.9465L8.22485 14.2505C8.28809 14.0129 8.40552 13.7944 8.55591 13.6001H4ZM7.19995 12H5.1311L5.59985 11.5312L7.19995 9.93115V12ZM40.8 7.2002V5.6001H21.2122H5.6001V9.2688L7.66895 7.2002H40.8ZM1.6001 2.18579C1.6001 1.86255 1.86328 1.6001 2.18579 1.6001H16.3882L18.1025 4H4V10.8689L2.40015 12.469V30.137L1.6001 32.3193V2.18579ZM37.8591 37.5999C38.0623 37.5999 38.2424 37.4624 38.2952 37.2664L46.3936 15.0552C46.3735 14.8367 46.2959 14.3999 45.9919 14.3999H44H10.1848C9.98145 14.3999 9.80151 14.5376 9.74878 14.7334L9.72803 14.7991L2.3999 34.8894L1.59521 37.0959C1.56567 37.2175 1.64307 37.3567 1.6936 37.4224C1.7439 37.4888 1.85767 37.5999 2.052 37.5999H37.8591Z" transform="translate(0 0.399902)" fill="#2BA4A7"/>
</svg>
