<svg width="20" height="70" viewBox="0 0 20 70" fill="none" xmlns="http://www.w3.org/2000/svg"><path fill-rule="evenodd" clip-rule="evenodd" d="M3.672 70c-.132 0-.267-.011-.4-.036-1.218-.233-2.028-1.456-1.807-2.733L12.434 1.92C12.655.642 14.082-.191 15.301.038c1.217.23 2.025 1.455 1.806 2.734L5.875 68.068C5.678 69.203 4.735 70 3.672 70zM1.998 25.152C.35 24.866-.183 23.717.054 22.457L3.506 1.894C3.744.634 5.279-.188 6.59.037 7.9.264 8.769 1.473 8.533 2.733l-3.735 20.55c-.212 1.119-1.15 2.155-2.8 1.869zM13.427 69.952c-1.65-.286-2.182-1.435-1.945-2.695l3.452-20.563c.238-1.26 1.774-2.082 3.085-1.857 1.31.227 2.178 1.436 1.942 2.696l-3.735 20.55c-.211 1.119-1.15 2.155-2.8 1.869z"/><mask id="a" maskUnits="userSpaceOnUse" x="11" y="44" width="9" height="26"><path fill-rule="evenodd" clip-rule="evenodd" d="M1.998 25.152C.35 24.866-.183 23.717.054 22.457L3.506 1.894C3.744.634 5.279-.188 6.59.037 7.9.264 8.769 1.473 8.533 2.733l-3.735 20.55c-.212 1.119-1.15 2.155-2.8 1.869z" transform="translate(11.428 44.8)" /></mask></svg>