<svg width="20" height="70" viewBox="0 0 20 70" fill="none" xmlns="http://www.w3.org/2000/svg">
<path fill-rule="evenodd" clip-rule="evenodd" d="M2.24382 70C2.1111 70 1.9766 69.9889 1.84387 69.9638C0.625451 69.7315 -0.184177 68.508 0.0361479 67.2306L11.0055 1.92084C11.2267 0.642495 12.654 -0.190843 13.8724 0.0376977C15.0899 0.268097 15.8978 1.49348 15.6783 2.77183L4.44619 68.0676C4.24975 69.2029 3.3074 70 2.24382 70Z" transform="translate(1.42847)" fill="white"/>
<path fill-rule="evenodd" clip-rule="evenodd" d="M1.9982 25.152C0.349169 24.8664 -0.183478 23.7166 0.0535369 22.4571L3.50595 1.8939C3.74392 0.633484 5.27928 -0.188167 6.59 0.0371689C7.89977 0.264336 8.76882 1.47254 8.53276 2.73295L4.79764 23.2824C4.58632 24.4018 3.64723 25.4376 1.9982 25.152Z" fill="white"/>
<path fill-rule="evenodd" clip-rule="evenodd" d="M1.9982 25.152C0.349169 24.8664 -0.183478 23.7166 0.0535369 22.4571L3.50595 1.8939C3.74392 0.633484 5.27928 -0.188167 6.59 0.0371689C7.89977 0.264336 8.76882 1.47254 8.53276 2.73295L4.79764 23.2824C4.58632 24.4018 3.64723 25.4376 1.9982 25.152Z" transform="translate(11.4285 44.8)" fill="white"/>
<mask id="mask0" mask-type="alpha" maskUnits="userSpaceOnUse" x="11" y="44" width="9" height="26">
<path fill-rule="evenodd" clip-rule="evenodd" d="M1.9982 25.152C0.349169 24.8664 -0.183478 23.7166 0.0535369 22.4571L3.50595 1.8939C3.74392 0.633484 5.27928 -0.188167 6.59 0.0371689C7.89977 0.264336 8.76882 1.47254 8.53276 2.73295L4.79764 23.2824C4.58632 24.4018 3.64723 25.4376 1.9982 25.152Z" transform="translate(11.4285 44.8)" fill="white"/>
</mask>
<g mask="url(#mask0)">
</g>
</svg>
