<svg width="69" height="67" viewBox="0 0 69 67" fill="none" xmlns="http://www.w3.org/2000/svg">
<path fill-rule="evenodd" clip-rule="evenodd" d="M0 5.00574C0 2.24597 2.23584 0 4.9834 0C7.73071 0 9.96655 2.24597 9.96655 5.00574C9.96655 7.76562 7.73071 10.0115 4.9834 10.0115C2.23584 10.0115 0 7.76562 0 5.00574ZM2.21484 5.00574C2.21484 6.53967 3.4563 7.78662 4.9834 7.78662C6.5105 7.78662 7.75195 6.53967 7.75195 5.00574C7.75195 3.47168 6.5105 2.22473 4.9834 2.22473C3.4563 2.22473 2.21484 3.47168 2.21484 5.00574Z" transform="translate(6.8999 6.16089)" fill="#666666"/>
<path d="M1.15 2.31034C1.78513 2.31034 2.3 1.79316 2.3 1.15517C2.3 0.517188 1.78513 0 1.15 0C0.514872 0 0 0.517188 0 1.15517C0 1.79316 0.514872 2.31034 1.15 2.31034Z" transform="translate(54.4333 8.47131)" fill="#666666"/>
<path d="M1.15 2.31034C1.78513 2.31034 2.3 1.79316 2.3 1.15517C2.3 0.517188 1.78513 0 1.15 0C0.514872 0 0 0.517188 0 1.15517C0 1.79316 0.514872 2.31034 1.15 2.31034Z" transform="translate(49.8333 8.47131)" fill="#666666"/>
<path d="M1.15 2.31034C1.78513 2.31034 2.3 1.79316 2.3 1.15517C2.3 0.517188 1.78513 0 1.15 0C0.514872 0 0 0.517188 0 1.15517C0 1.79316 0.514872 2.31034 1.15 2.31034Z" transform="translate(56.7334 12.3219)" fill="#666666"/>
<path d="M1.15 2.31034C1.78513 2.31034 2.3 1.79316 2.3 1.15517C2.3 0.517188 1.78513 0 1.15 0C0.514872 0 0 0.517188 0 1.15517C0 1.79316 0.514872 2.31034 1.15 2.31034Z" transform="translate(52.1333 12.3219)" fill="#666666"/>
<path d="M1.15 2.31034C1.78513 2.31034 2.3 1.79316 2.3 1.15517C2.3 0.517188 1.78513 0 1.15 0C0.514872 0 0 0.517188 0 1.15517C0 1.79316 0.514872 2.31034 1.15 2.31034Z" transform="translate(45.2334 8.47131)" fill="#666666"/>
<path d="M1.15 2.31034C1.78513 2.31034 2.3 1.79316 2.3 1.15517C2.3 0.517188 1.78513 0 1.15 0C0.514872 0 0 0.517188 0 1.15517C0 1.79316 0.514872 2.31034 1.15 2.31034Z" transform="translate(47.5334 12.3219)" fill="#666666"/>
<path d="M1.15 2.31034C1.78513 2.31034 2.3 1.79316 2.3 1.15517C2.3 0.517188 1.78513 0 1.15 0C0.514872 0 0 0.517188 0 1.15517C0 1.79316 0.514872 2.31034 1.15 2.31034Z" transform="translate(41.3999 8.47131)" fill="#666666"/>
<path d="M1.15 2.31034C1.78513 2.31034 2.3 1.79316 2.3 1.15517C2.3 0.517188 1.78513 0 1.15 0C0.514872 0 0 0.517188 0 1.15517C0 1.79316 0.514872 2.31034 1.15 2.31034Z" transform="translate(43.7 12.3219)" fill="#666666"/>
<path d="M1.15 2.31034C1.78513 2.31034 2.3 1.79316 2.3 1.15517C2.3 0.517188 1.78513 0 1.15 0C0.514872 0 0 0.517188 0 1.15517C0 1.79316 0.514872 2.31034 1.15 2.31034Z" transform="translate(36.8 8.47131)" fill="#666666"/>
<path d="M1.15 2.31034C1.78513 2.31034 2.3 1.79316 2.3 1.15517C2.3 0.517188 1.78513 0 1.15 0C0.514872 0 0 0.517188 0 1.15517C0 1.79316 0.514872 2.31034 1.15 2.31034Z" transform="translate(39.1001 12.3219)" fill="#666666"/>
<path fill-rule="evenodd" clip-rule="evenodd" d="M66.7 5.17261V18.4006C66.7 20.0486 65.9185 21.5023 64.7234 22.4508C65.9175 23.3982 66.699 24.8519 66.699 26.501V42.6565H64.4756V26.501C64.4756 24.8867 63.1748 23.5734 61.5764 23.5734H5.12256C3.52393 23.5734 2.22339 24.8867 2.22339 26.501V39.729C2.22339 41.3431 3.52393 42.6565 5.12256 42.6565H42.2434V44.9016H5.12256C3.52393 44.9016 2.22339 46.215 2.22339 47.8292V61.0573C2.22339 62.6714 3.52393 63.9849 5.12256 63.9849H31.1267V66.2299H5.12256C2.29785 66.2299 0 63.9095 0 61.0573V47.8292C0 46.1813 0.781494 44.7277 1.97534 43.7791C0.781494 42.8317 0 41.3779 0 39.729V26.501C0 24.853 0.781494 23.3994 1.97534 22.4508C0.781494 21.5034 0 20.0497 0 18.4006V5.17261C0 2.32031 2.29785 0 5.12256 0H61.5774C64.4021 0 66.7 2.32031 66.7 5.17261ZM2.22339 18.4008C2.22339 20.0149 3.52393 21.3282 5.12256 21.3282H61.5774C63.176 21.3282 64.4768 20.0149 64.4768 18.4008V5.17273C64.4768 3.55847 63.176 2.24512 61.5764 2.24512H5.12256C3.52393 2.24512 2.22339 3.55847 2.22339 5.17273V18.4008Z" fill="#666666"/>
<path fill-rule="evenodd" clip-rule="evenodd" d="M4.9834 10.0115C2.23584 10.0115 0 7.76562 0 5.00574C0 2.24597 2.23584 0 4.9834 0C7.73071 0 9.96655 2.24597 9.96655 5.00574C9.96655 7.76562 7.73071 10.0115 4.9834 10.0115ZM4.9834 7.78662C6.5105 7.78662 7.75195 6.53967 7.75195 5.00574C7.75195 3.47168 6.5105 2.22473 4.9834 2.22473C3.4563 2.22473 2.21484 3.47168 2.21484 5.00574C2.21484 6.53967 3.4563 7.78662 4.9834 7.78662Z" transform="translate(6.8999 27.7241)" fill="#666666"/>
<path d="M1.15 2.31034C1.78513 2.31034 2.3 1.79316 2.3 1.15517C2.3 0.517188 1.78513 0 1.15 0C0.514872 0 0 0.517188 0 1.15517C0 1.79316 0.514872 2.31034 1.15 2.31034Z" transform="translate(54.4333 30.0344)" fill="#666666"/>
<path d="M1.15 2.31034C1.78513 2.31034 2.3 1.79316 2.3 1.15517C2.3 0.517188 1.78513 0 1.15 0C0.514872 0 0 0.517188 0 1.15517C0 1.79316 0.514872 2.31034 1.15 2.31034Z" transform="translate(49.8333 30.0344)" fill="#666666"/>
<path d="M1.15 2.31034C1.78513 2.31034 2.3 1.79316 2.3 1.15517C2.3 0.517188 1.78513 0 1.15 0C0.514872 0 0 0.517188 0 1.15517C0 1.79316 0.514872 2.31034 1.15 2.31034Z" transform="translate(56.7334 33.115)" fill="#666666"/>
<path d="M1.15 2.31034C1.78513 2.31034 2.3 1.79316 2.3 1.15517C2.3 0.517188 1.78513 0 1.15 0C0.514872 0 0 0.517188 0 1.15517C0 1.79316 0.514872 2.31034 1.15 2.31034Z" transform="translate(52.1333 33.115)" fill="#666666"/>
<path d="M1.15 2.31034C1.78513 2.31034 2.3 1.79316 2.3 1.15517C2.3 0.517188 1.78513 0 1.15 0C0.514872 0 0 0.517188 0 1.15517C0 1.79316 0.514872 2.31034 1.15 2.31034Z" transform="translate(45.2334 30.0344)" fill="#666666"/>
<path d="M1.15 2.31034C1.78513 2.31034 2.3 1.79316 2.3 1.15517C2.3 0.517188 1.78513 0 1.15 0C0.514872 0 0 0.517188 0 1.15517C0 1.79316 0.514872 2.31034 1.15 2.31034Z" transform="translate(47.5334 33.115)" fill="#666666"/>
<path d="M1.15 2.31034C1.78513 2.31034 2.3 1.79316 2.3 1.15517C2.3 0.517188 1.78513 0 1.15 0C0.514872 0 0 0.517188 0 1.15517C0 1.79316 0.514872 2.31034 1.15 2.31034Z" transform="translate(41.3999 30.0344)" fill="#666666"/>
<path d="M1.15 2.31034C1.78513 2.31034 2.3 1.79316 2.3 1.15517C2.3 0.517188 1.78513 0 1.15 0C0.514872 0 0 0.517188 0 1.15517C0 1.79316 0.514872 2.31034 1.15 2.31034Z" transform="translate(43.7 33.115)" fill="#666666"/>
<path d="M1.15 2.31034C1.78513 2.31034 2.3 1.79316 2.3 1.15517C2.3 0.517188 1.78513 0 1.15 0C0.514872 0 0 0.517188 0 1.15517C0 1.79316 0.514872 2.31034 1.15 2.31034Z" transform="translate(36.8 30.0344)" fill="#666666"/>
<path d="M1.15 2.31034C1.78513 2.31034 2.3 1.79316 2.3 1.15517C2.3 0.517188 1.78513 0 1.15 0C0.514872 0 0 0.517188 0 1.15517C0 1.79316 0.514872 2.31034 1.15 2.31034Z" transform="translate(39.1001 33.115)" fill="#666666"/>
<path fill-rule="evenodd" clip-rule="evenodd" d="M4.9834 10.0115C2.23584 10.0115 0 7.76562 0 5.00574C0 2.24597 2.23584 0 4.9834 0C7.73071 0 9.96655 2.24597 9.96655 5.00574C9.96655 7.76562 7.73071 10.0115 4.9834 10.0115ZM4.9834 7.78662C6.5105 7.78662 7.75195 6.53967 7.75195 5.00574C7.75195 3.47168 6.5105 2.22473 4.9834 2.22473C3.4563 2.22473 2.21484 3.47168 2.21484 5.00574C2.21484 6.53967 3.4563 7.78662 4.9834 7.78662Z" transform="translate(6.8999 49.2874)" fill="#666666"/>
<path fill-rule="evenodd" clip-rule="evenodd" d="M17.335 0C21.9082 0 25.7253 3.66003 26.2039 8.32117C28.8345 9.23584 30.6655 11.8156 30.6667 14.7662C30.6667 18.5137 27.7405 21.5632 24.144 21.5632H19.3379C19.2664 21.5632 19.1973 21.5587 19.1282 21.5542C19.0691 21.5587 19.0044 21.5632 18.9375 21.5632H6.92285C3.10571 21.5632 0 18.3264 0 14.3463C0 11.7803 1.34814 9.38562 3.47485 8.10205C4.23877 5.56445 6.53711 3.77466 9.12427 3.77466C9.45532 3.77466 9.78442 3.8031 10.1089 3.86096C11.7771 1.45947 14.4758 0 17.335 0ZM19.2898 19.2899L24.1431 19.2933C26.5093 19.2933 28.4353 17.2618 28.4341 14.7651C28.4341 12.5895 26.9587 10.7191 24.9258 10.3174L24.0349 10.1415L24.0225 9.21875C23.9746 5.38733 20.9749 2.26978 17.334 2.26978C14.9541 2.26978 12.8042 3.56128 11.582 5.72449L11.127 6.53137L10.2605 6.23511C9.89014 6.10913 9.50781 6.04443 9.12305 6.04443C7.40576 6.04443 5.89136 7.328 5.52222 9.09851L5.40845 9.63757L4.92334 9.88049C3.28638 10.7032 2.22803 12.4567 2.22803 14.3463C2.22803 17.0735 4.3335 19.2933 6.92065 19.2933L19.1003 19.2832L19.2898 19.2899Z" transform="translate(38.3333 45.4368)" fill="#ECA600"/>
</svg>
