<svg width="15" height="13" viewBox="0 0 15 13" fill="none" xmlns="http://www.w3.org/2000/svg">
<g id="Message Copy">
<path id="Shape" fill-rule="evenodd" clip-rule="evenodd" d="M14.9798 0.421821L10.502 11.8277C10.3887 12.1156 10.1372 12.3387 9.82157 12.4279C9.50511 12.518 9.16117 12.4636 8.89468 12.2827L4.70911 9.4485L14.3253 0.632725L3.44994 8.59515L0.388631 6.521C0.108815 6.33199 -0.0369217 6.01564 0.00804861 5.69604C0.0538517 5.37725 0.2837 5.10713 0.605987 4.99113L14.5418 0.0211039C14.6659 -0.0235103 14.8049 0.00406937 14.899 0.0900532C14.9932 0.176848 15.0248 0.305824 14.9798 0.421821ZM4.46273 12.891C4.25703 13.0151 3.99804 13.0337 3.77402 12.9437C3.54917 12.8528 3.38844 12.6646 3.34347 12.4399L2.74969 9.41591L2.72388 9.28369L6.34232 11.6969C6.37147 11.735 5.29052 12.3945 4.46273 12.891Z" transform="scale(0.923087)" fill="#23406E"/>
</g>
</svg>
