<svg width="67" height="67" viewBox="0 0 67 67" fill="none" xmlns="http://www.w3.org/2000/svg"><path fill-rule="evenodd" clip-rule="evenodd" d="M6.931 11.128c0-2.75 2.246-4.988 5.006-4.988 2.76 0 5.006 2.238 5.006 4.988 0 2.75-2.246 4.988-5.006 4.988-2.76 0-5.006-2.238-5.006-4.988zm2.225 0a2.779 2.779 0 0 0 2.781 2.771 2.779 2.779 0 0 0 2.781-2.771 2.779 2.779 0 0 0-2.781-2.771 2.779 2.779 0 0 0-2.781 2.77z" fill="#666"/><path d="M55.833 10.744c.638 0 1.156-.515 1.156-1.15 0-.637-.518-1.152-1.156-1.152-.638 0-1.155.515-1.155 1.151s.517 1.151 1.155 1.151zM51.213 10.744c.638 0 1.155-.515 1.155-1.15 0-.637-.517-1.152-1.155-1.152s-1.156.515-1.156 1.151.518 1.151 1.156 1.151zM58.144 14.581c.638 0 1.155-.515 1.155-1.15 0-.637-.517-1.152-1.155-1.152s-1.155.515-1.155 1.151.517 1.151 1.155 1.151zM53.523 14.581c.638 0 1.155-.515 1.155-1.15 0-.637-.517-1.152-1.155-1.152s-1.155.515-1.155 1.151.517 1.151 1.155 1.151zM46.592 10.744c.638 0 1.155-.515 1.155-1.15 0-.637-.517-1.152-1.155-1.152s-1.155.515-1.155 1.151.517 1.151 1.155 1.151zM48.902 14.581c.638 0 1.155-.515 1.155-1.15 0-.637-.517-1.152-1.155-1.152s-1.155.515-1.155 1.151.517 1.151 1.155 1.151zM42.741 10.744c.638 0 1.156-.515 1.156-1.15 0-.637-.518-1.152-1.156-1.152-.638 0-1.155.515-1.155 1.151s.517 1.151 1.155 1.151zM45.052 14.581c.638 0 1.155-.515 1.155-1.15 0-.637-.517-1.152-1.155-1.152s-1.155.515-1.155 1.151.517 1.151 1.155 1.151zM38.12 10.744c.639 0 1.156-.515 1.156-1.15 0-.637-.517-1.152-1.155-1.152s-1.155.515-1.155 1.151.517 1.151 1.155 1.151zM40.431 14.581c.638 0 1.155-.515 1.155-1.15 0-.637-.517-1.152-1.155-1.152s-1.155.515-1.155 1.151.517 1.151 1.155 1.151z" fill="#666"/><path fill-rule="evenodd" clip-rule="evenodd" d="M67 5.155v13.182c0 1.642-.785 3.09-1.985 4.036 1.199.944 1.984 2.393 1.984 4.036v16.1h-2.233v-16.1a2.918 2.918 0 0 0-2.913-2.917H5.146a2.918 2.918 0 0 0-2.913 2.917V39.59a2.918 2.918 0 0 0 2.913 2.917h37.287v2.238H5.146a2.918 2.918 0 0 0-2.913 2.917v13.182a2.918 2.918 0 0 0 2.913 2.918h26.12V66H5.147C2.308 66 0 63.688 0 60.845V47.663c0-1.642.785-3.09 1.984-4.036C.784 42.683 0 41.234 0 39.591V26.41c0-1.642.785-3.09 1.984-4.036C.784 21.429 0 19.98 0 18.337V5.155C0 2.312 2.308 0 5.146 0h56.709C64.692 0 67 2.312 67 5.155zM2.233 18.337a2.918 2.918 0 0 0 2.913 2.917h56.709a2.918 2.918 0 0 0 2.912-2.917V5.155a2.919 2.919 0 0 0-2.914-2.918H5.146a2.918 2.918 0 0 0-2.913 2.918v13.182z" fill="#666"/><path fill-rule="evenodd" clip-rule="evenodd" d="M11.937 37.605c-2.76 0-5.006-2.238-5.006-4.989 0-2.75 2.246-4.988 5.006-4.988 2.76 0 5.006 2.238 5.006 4.988 0 2.75-2.246 4.989-5.006 4.989zm0-2.217a2.779 2.779 0 0 0 2.781-2.772 2.779 2.779 0 0 0-2.781-2.771 2.779 2.779 0 0 0-2.781 2.771 2.779 2.779 0 0 0 2.781 2.772z" fill="#666"/><path d="M55.833 32.233c.638 0 1.156-.516 1.156-1.152 0-.635-.518-1.15-1.156-1.15-.638 0-1.155.515-1.155 1.15 0 .636.517 1.152 1.155 1.152zM51.213 32.233c.638 0 1.155-.516 1.155-1.152 0-.635-.517-1.15-1.155-1.15s-1.156.515-1.156 1.15c0 .636.518 1.152 1.156 1.152zM58.144 35.302c.638 0 1.155-.515 1.155-1.15 0-.637-.517-1.152-1.155-1.152s-1.155.515-1.155 1.151.517 1.151 1.155 1.151zM53.523 35.302c.638 0 1.155-.515 1.155-1.15 0-.637-.517-1.152-1.155-1.152s-1.155.515-1.155 1.151.517 1.151 1.155 1.151zM46.592 32.233c.638 0 1.155-.516 1.155-1.152 0-.635-.517-1.15-1.155-1.15s-1.155.515-1.155 1.15c0 .636.517 1.152 1.155 1.152zM48.902 35.302c.638 0 1.155-.515 1.155-1.15 0-.637-.517-1.152-1.155-1.152s-1.155.515-1.155 1.151.517 1.151 1.155 1.151zM42.741 32.233c.638 0 1.156-.516 1.156-1.152 0-.635-.518-1.15-1.156-1.15-.638 0-1.155.515-1.155 1.15 0 .636.517 1.152 1.155 1.152zM45.052 35.302c.638 0 1.155-.515 1.155-1.15 0-.637-.517-1.152-1.155-1.152s-1.155.515-1.155 1.151.517 1.151 1.155 1.151zM38.12 32.233c.639 0 1.156-.516 1.156-1.152 0-.635-.517-1.15-1.155-1.15s-1.155.515-1.155 1.15c0 .636.517 1.152 1.155 1.152zM40.431 35.302c.638 0 1.155-.515 1.155-1.15 0-.637-.517-1.152-1.155-1.152s-1.155.515-1.155 1.151.517 1.151 1.155 1.151z" fill="#666"/><path fill-rule="evenodd" clip-rule="evenodd" d="M11.937 59.093c-2.76 0-5.006-2.238-5.006-4.988 0-2.75 2.246-4.989 5.006-4.989 2.76 0 5.006 2.238 5.006 4.989 0 2.75-2.246 4.988-5.006 4.988zm0-2.217a2.779 2.779 0 0 0 2.781-2.771 2.779 2.779 0 0 0-2.781-2.772 2.779 2.779 0 0 0-2.781 2.772 2.779 2.779 0 0 0 2.781 2.77z" fill="#666"/><path d="M65.619 53.235a.612.612 0 0 0-.611.613v10.926h-6.556v-6.859a.612.612 0 0 0-.61-.613h-4.787a.612.612 0 0 0-.61.613v5.439a.612.612 0 1 0 1.221 0v-4.825h3.564v6.245H45.89v-15.01l9.56-7.69 9.788 7.874a.61.61 0 0 0 .859-.095.615.615 0 0 0-.095-.862l-10.17-8.182a.609.609 0 0 0-.765 0l-10.17 8.182a.614.614 0 0 0-.23.478v15.918c0 .338.274.613.612.613h20.341c.337 0 .61-.275.61-.613V53.848a.612.612 0 0 0-.61-.613z" fill="#ECA600" stroke="#ECA600" stroke-width=".77"/></svg>