<svg width="67" height="67" viewBox="0 0 67 67" fill="none" xmlns="http://www.w3.org/2000/svg">
<path fill-rule="evenodd" clip-rule="evenodd" d="M0 4.9884C0 2.23816 2.24585 0 5.00586 0C7.76562 0 10.0115 2.23816 10.0115 4.9884C10.0115 7.73865 7.76562 9.97668 5.00586 9.97668C2.24585 9.97668 0 7.73865 0 4.9884ZM2.22485 4.9884C2.22485 6.51697 3.47192 7.75964 5.00586 7.75964C6.53979 7.75964 7.78687 6.51697 7.78687 4.9884C7.78687 3.45972 6.53979 2.21704 5.00586 2.21704C3.47192 2.21704 2.22485 3.45972 2.22485 4.9884Z" transform="translate(6.93115 6.13953)" fill="#666666"/>
<path d="M1.15517 2.30233C1.79316 2.30233 2.31034 1.78693 2.31034 1.15116C2.31034 0.515393 1.79316 0 1.15517 0C0.517188 0 0 0.515393 0 1.15116C0 1.78693 0.517188 2.30233 1.15517 2.30233Z" transform="translate(54.6782 8.44189)" fill="#666666"/>
<path d="M1.15517 2.30233C1.79316 2.30233 2.31034 1.78693 2.31034 1.15116C2.31034 0.515393 1.79316 0 1.15517 0C0.517188 0 0 0.515393 0 1.15116C0 1.78693 0.517188 2.30233 1.15517 2.30233Z" transform="translate(50.0574 8.44189)" fill="#666666"/>
<path d="M1.15517 2.30233C1.79316 2.30233 2.31034 1.78693 2.31034 1.15116C2.31034 0.515393 1.79316 0 1.15517 0C0.517188 0 0 0.515393 0 1.15116C0 1.78693 0.517188 2.30233 1.15517 2.30233Z" transform="translate(56.9885 12.2791)" fill="#666666"/>
<path d="M1.15517 2.30233C1.79316 2.30233 2.31034 1.78693 2.31034 1.15116C2.31034 0.515393 1.79316 0 1.15517 0C0.517188 0 0 0.515393 0 1.15116C0 1.78693 0.517188 2.30233 1.15517 2.30233Z" transform="translate(52.3679 12.2791)" fill="#666666"/>
<path d="M1.15517 2.30233C1.79316 2.30233 2.31034 1.78693 2.31034 1.15116C2.31034 0.515393 1.79316 0 1.15517 0C0.517188 0 0 0.515393 0 1.15116C0 1.78693 0.517188 2.30233 1.15517 2.30233Z" transform="translate(45.4368 8.44189)" fill="#666666"/>
<path d="M1.15517 2.30233C1.79316 2.30233 2.31034 1.78693 2.31034 1.15116C2.31034 0.515393 1.79316 0 1.15517 0C0.517188 0 0 0.515393 0 1.15116C0 1.78693 0.517188 2.30233 1.15517 2.30233Z" transform="translate(47.7471 12.2791)" fill="#666666"/>
<path d="M1.15517 2.30233C1.79316 2.30233 2.31034 1.78693 2.31034 1.15116C2.31034 0.515393 1.79316 0 1.15517 0C0.517188 0 0 0.515393 0 1.15116C0 1.78693 0.517188 2.30233 1.15517 2.30233Z" transform="translate(41.5862 8.44189)" fill="#666666"/>
<path d="M1.15517 2.30233C1.79316 2.30233 2.31034 1.78693 2.31034 1.15116C2.31034 0.515393 1.79316 0 1.15517 0C0.517188 0 0 0.515393 0 1.15116C0 1.78693 0.517188 2.30233 1.15517 2.30233Z" transform="translate(43.8965 12.2791)" fill="#666666"/>
<path d="M1.15517 2.30233C1.79316 2.30233 2.31034 1.78693 2.31034 1.15116C2.31034 0.515393 1.79316 0 1.15517 0C0.517188 0 0 0.515393 0 1.15116C0 1.78693 0.517188 2.30233 1.15517 2.30233Z" transform="translate(36.9656 8.44189)" fill="#666666"/>
<path d="M1.15517 2.30233C1.79316 2.30233 2.31034 1.78693 2.31034 1.15116C2.31034 0.515393 1.79316 0 1.15517 0C0.517188 0 0 0.515393 0 1.15116C0 1.78693 0.517188 2.30233 1.15517 2.30233Z" transform="translate(39.2759 12.2791)" fill="#666666"/>
<path fill-rule="evenodd" clip-rule="evenodd" d="M67 5.15466V18.3368C67 19.979 66.2151 21.4276 65.0146 22.3729C66.2139 23.317 66.9988 24.7656 66.9988 26.4089V42.5084H64.7656V26.4089C64.7656 24.8003 63.459 23.4916 61.8533 23.4916H5.14551C3.53979 23.4916 2.2334 24.8003 2.2334 26.4089V39.5911C2.2334 41.1997 3.53979 42.5084 5.14551 42.5084H42.4333V44.7457H5.14551C3.53979 44.7457 2.2334 46.0546 2.2334 47.6632V60.8453C2.2334 62.4539 3.53979 63.7627 5.14551 63.7627H31.2666V66H5.14551C2.30811 66 0 63.6877 0 60.8453V47.6632C0 46.021 0.784912 44.5724 1.98438 43.6271C0.784912 42.683 0 41.2344 0 39.5911V26.4089C0 24.7667 0.784912 23.3181 1.98438 22.3729C0.784912 21.4287 0 19.9801 0 18.3368V5.15466C0 2.31226 2.30811 0 5.14551 0H61.8545C64.6919 0 67 2.31226 67 5.15466ZM2.2334 18.3368C2.2334 19.9454 3.53979 21.2543 5.14575 21.2543H61.8545C63.4602 21.2543 64.7668 19.9454 64.7668 18.3368V5.15479C64.7668 3.54614 63.4602 2.2373 61.8533 2.2373H5.14575C3.53979 2.2373 2.2334 3.54614 2.2334 5.15479V18.3368Z" fill="#666666"/>
<path fill-rule="evenodd" clip-rule="evenodd" d="M5.00586 9.97668C2.24585 9.97668 0 7.73865 0 4.9884C0 2.23816 2.24585 0 5.00586 0C7.76562 0 10.0115 2.23816 10.0115 4.9884C10.0115 7.73865 7.76562 9.97668 5.00586 9.97668ZM5.00586 7.75964C6.53979 7.75964 7.78687 6.51697 7.78687 4.9884C7.78687 3.45972 6.53979 2.21704 5.00586 2.21704C3.47192 2.21704 2.22485 3.45972 2.22485 4.9884C2.22485 6.51697 3.47192 7.75964 5.00586 7.75964Z" transform="translate(6.93115 27.6279)" fill="#666666"/>
<path d="M1.15517 2.30233C1.79316 2.30233 2.31034 1.78693 2.31034 1.15116C2.31034 0.515393 1.79316 0 1.15517 0C0.517188 0 0 0.515393 0 1.15116C0 1.78693 0.517188 2.30233 1.15517 2.30233Z" transform="translate(54.6782 29.9302)" fill="#666666"/>
<path d="M1.15517 2.30233C1.79316 2.30233 2.31034 1.78693 2.31034 1.15116C2.31034 0.515393 1.79316 0 1.15517 0C0.517188 0 0 0.515393 0 1.15116C0 1.78693 0.517188 2.30233 1.15517 2.30233Z" transform="translate(50.0574 29.9302)" fill="#666666"/>
<path d="M1.15517 2.30233C1.79316 2.30233 2.31034 1.78693 2.31034 1.15116C2.31034 0.515393 1.79316 0 1.15517 0C0.517188 0 0 0.515393 0 1.15116C0 1.78693 0.517188 2.30233 1.15517 2.30233Z" transform="translate(56.9885 33)" fill="#666666"/>
<path d="M1.15517 2.30233C1.79316 2.30233 2.31034 1.78693 2.31034 1.15116C2.31034 0.515393 1.79316 0 1.15517 0C0.517188 0 0 0.515393 0 1.15116C0 1.78693 0.517188 2.30233 1.15517 2.30233Z" transform="translate(52.3679 33)" fill="#666666"/>
<path d="M1.15517 2.30233C1.79316 2.30233 2.31034 1.78693 2.31034 1.15116C2.31034 0.515393 1.79316 0 1.15517 0C0.517188 0 0 0.515393 0 1.15116C0 1.78693 0.517188 2.30233 1.15517 2.30233Z" transform="translate(45.4368 29.9302)" fill="#666666"/>
<path d="M1.15517 2.30233C1.79316 2.30233 2.31034 1.78693 2.31034 1.15116C2.31034 0.515393 1.79316 0 1.15517 0C0.517188 0 0 0.515393 0 1.15116C0 1.78693 0.517188 2.30233 1.15517 2.30233Z" transform="translate(47.7471 33)" fill="#666666"/>
<path d="M1.15517 2.30233C1.79316 2.30233 2.31034 1.78693 2.31034 1.15116C2.31034 0.515393 1.79316 0 1.15517 0C0.517188 0 0 0.515393 0 1.15116C0 1.78693 0.517188 2.30233 1.15517 2.30233Z" transform="translate(41.5862 29.9302)" fill="#666666"/>
<path d="M1.15517 2.30233C1.79316 2.30233 2.31034 1.78693 2.31034 1.15116C2.31034 0.515393 1.79316 0 1.15517 0C0.517188 0 0 0.515393 0 1.15116C0 1.78693 0.517188 2.30233 1.15517 2.30233Z" transform="translate(43.8965 33)" fill="#666666"/>
<path d="M1.15517 2.30233C1.79316 2.30233 2.31034 1.78693 2.31034 1.15116C2.31034 0.515393 1.79316 0 1.15517 0C0.517188 0 0 0.515393 0 1.15116C0 1.78693 0.517188 2.30233 1.15517 2.30233Z" transform="translate(36.9656 29.9302)" fill="#666666"/>
<path d="M1.15517 2.30233C1.79316 2.30233 2.31034 1.78693 2.31034 1.15116C2.31034 0.515393 1.79316 0 1.15517 0C0.517188 0 0 0.515393 0 1.15116C0 1.78693 0.517188 2.30233 1.15517 2.30233Z" transform="translate(39.2759 33)" fill="#666666"/>
<path fill-rule="evenodd" clip-rule="evenodd" d="M5.00586 9.97668C2.24585 9.97668 0 7.73865 0 4.9884C0 2.23816 2.24585 0 5.00586 0C7.76562 0 10.0115 2.23816 10.0115 4.9884C10.0115 7.73865 7.76562 9.97668 5.00586 9.97668ZM5.00586 7.75964C6.53979 7.75964 7.78687 6.51697 7.78687 4.9884C7.78687 3.45972 6.53979 2.21704 5.00586 2.21704C3.47192 2.21704 2.22485 3.45972 2.22485 4.9884C2.22485 6.51697 3.47192 7.75964 5.00586 7.75964Z" transform="translate(6.93115 49.1163)" fill="#666666"/>
<path d="M20.9523 12.5607C20.6149 12.5607 20.3413 12.8353 20.3413 13.1739V24.0992H13.7855V17.241C13.7855 16.9024 13.5119 16.6277 13.1745 16.6277H8.38879C8.05145 16.6277 7.77784 16.9024 7.77784 17.241V22.6791C7.77784 23.0177 8.05145 23.2923 8.38879 23.2923C8.72613 23.2923 8.99974 23.0177 8.99974 22.6791V17.8542H12.5636V24.0992H1.22189V9.08913L10.7816 1.39925L20.5701 9.2732C20.8334 9.48508 21.2179 9.44236 21.4289 9.17815C21.6399 8.91385 21.5975 8.52802 21.3342 8.31615L11.1636 0.134759C10.9404 -0.0449196 10.6227 -0.0449196 10.3995 0.134759L0.228901 8.31615C0.0842086 8.43256 0 8.60846 0 8.79468V24.7123C0 25.051 0.2735 25.3256 0.610945 25.3256H20.9523C21.2897 25.3256 21.5632 25.051 21.5632 24.7123V13.1739C21.5632 12.8352 21.2897 12.5607 20.9523 12.5607Z" transform="translate(44.6667 40.6744)" fill="#ECA600" stroke="#ECA600" stroke-width="0.77"/>
</svg>
