<?xml version="1.0" encoding="utf-8"?>
<!-- Generator: Adobe Illustrator 21.1.0, SVG Export Plug-In . SVG Version: 6.00 Build 0)  -->
<svg version="1.1" id="LinkedIn" xmlns="http://www.w3.org/2000/svg" xmlns:xlink="http://www.w3.org/1999/xlink" x="0px" y="0px"
	 viewBox="0 0 380 100" enable-background="new 0 0 380 100" xml:space="preserve">
<polygon fill="#696969" points="20.1,16.7 5.5,16.7 5.5,83.4 47.2,83.4 47.2,69.9 20.1,69.9 "/>
<path fill="#696969" d="M60.6,15.7c-4.5,0-8.1,3.7-8.1,8.1c0,4.5,3.6,8.1,8.1,8.1s8.1-3.6,8.1-8.1C68.8,19.4,65.1,15.7,60.6,15.7z"
	/>
<rect x="53.6" y="38.2" fill="#696969" width="14" height="45.2"/>
<polygon fill="#696969" points="173.5,38.2 156.3,38.2 140.4,56.5 140.4,16.6 126.4,16.6 126.4,83.4 140.4,83.4 140.4,61 140.6,61 
	155.5,83.4 173.1,83.4 155.1,59 "/>
<path fill="#696969" d="M102.4,37c-6.8,0-11.4,3.7-13.3,7.3h-0.2v-6.2H75.4v45.2h14V61c0-5.9,1.1-11.6,8.4-11.6
	c7.2,0,7.3,6.7,7.3,12v22h14V58.6C119.2,46.4,116.6,37,102.4,37z"/>
<path fill="#696969" d="M195.8,36.9c-14,0-25.3,9.4-25.3,23.9s11.2,23.9,25.3,23.9c7.3,0,14.7-3.3,19.2-9l-9.8-7.2
	c-2.3,3.2-5.4,5.5-10,5.5c-5.4,0-9.5-3.5-10.6-8.8h32.6v-4.4C217.1,46.2,208.9,36.9,195.8,36.9z M184.5,55.5
	c0.4-4.4,3.7-8.6,9.9-8.6c5.1,0,8.7,3.9,8.6,8.6H184.5z"/>
<path fill="#696969" d="M256.5,16.6v26h-0.2c-3.2-4.4-8.6-6-14.4-6c-12.9,0-20.8,11.6-20.8,24.2c0,13.8,8.9,23.5,22.4,23.5
	c6.4,0,11.8-3.8,14-7.1h0.2v6h12.9l0,0V16.5L256.5,16.6L256.5,16.6z M246.4,72.2c-7,0-11.2-4.7-11.2-11.5s4.2-11.5,11.2-11.5
	s11.2,4.7,11.2,11.5C257.6,67.4,253.4,72.2,246.4,72.2z"/>
<path fill="#0077B5" d="M372.3,2.6h-80.7c-3.9,0-7,3.1-7,6.8v81.1c0,3.8,3.1,6.8,7,6.8h80.7c3.9,0,7-3.1,7-6.8v-81
	C379.3,5.7,376.2,2.6,372.3,2.6z"/>
<path fill="#FFFFFF" d="M298.6,38.2h14v45.2h-14V38.2z M305.7,15.7c4.5,0,8.1,3.7,8.1,8.1c0,4.5-3.6,8.1-8.1,8.1s-8.1-3.7-8.1-8.1
	C297.5,19.4,301.1,15.7,305.7,15.7"/>
<path fill="#FFFFFF" d="M321.5,38.2H335v6.2h0.2c1.9-3.6,6.5-7.3,13.3-7.3c14.2,0,16.9,9.4,16.9,21.5v24.8h-14v-22
	c0-5.2-0.1-12-7.3-12c-7.3,0-8.4,5.7-8.4,11.6v22.4h-14L321.5,38.2L321.5,38.2L321.5,38.2z"/>
</svg>
