<svg width="47" height="44" viewBox="0 0 47 44" fill="none" xmlns="http://www.w3.org/2000/svg">
<path d="M30.8833 0H0.116724C0.0583621 0 0 0.0490196 0 0.117647V2.88235C0 2.94118 0.0486351 3 0.116724 3H30.8833C30.9416 3 31 2.95098 31 2.88235V0.117647C31 0.0490196 30.9514 0 30.8833 0Z" transform="translate(16 1)" fill="#2BA4A7"/>
<path d="M0.120075 3H15.8799C15.94 3 16 2.95098 16 2.88235V0.117647C16 0.0588235 15.95 0 15.8799 0H0.120075C0.0600375 0 0 0.0490196 0 0.117647V2.88235C0 2.95098 0.0500313 3 0.120075 3Z" transform="translate(16 7)" fill="#2BA4A7"/>
<path d="M30.8833 0H0.116724C0.0583621 0 0 0.0490196 0 0.117647V2.88235C0 2.94118 0.0486351 3 0.116724 3H30.8833C30.9416 3 31 2.95098 31 2.88235V0.117647C31 0.0490196 30.9514 0 30.8833 0Z" transform="translate(16 18)" fill="#2BA4A7"/>
<path d="M0.120075 3H15.8799C15.94 3 16 2.95098 16 2.88235V0.117647C16 0.0588235 15.95 0 15.8799 0H0.120075C0.0600375 0 0 0.0490196 0 0.117647V2.88235C0 2.95098 0.0500313 3 0.120075 3Z" transform="translate(16 24)" fill="#2BA4A7"/>
<path d="M30.8833 0H0.116724C0.0583621 0 0 0.0490196 0 0.117647V2.88235C0 2.94118 0.0486351 3 0.116724 3H30.8833C30.9416 3 31 2.95098 31 2.88235V0.117647C31 0.0490196 30.9514 0 30.8833 0Z" transform="translate(16 34)" fill="#2BA4A7"/>
<path d="M15.8799 0H0.120075C0.0600375 0 0 0.0490196 0 0.117647V2.88235C0 2.94118 0.0500313 3 0.120075 3H15.8799C15.94 3 16 2.95098 16 2.88235V0.117647C15.99 0.0490196 15.94 0 15.8799 0Z" transform="translate(16 41)" fill="#2BA4A7"/>
<path d="M4.85745 5.86926L2.4802 3.38163L0 5.947L2.37725 8.42491L4.84809 11L7.32829 8.44435L13 2.57509L10.5385 0L4.85745 5.86926Z" fill="#2BA4A7"/>
<path d="M4.85745 5.86926L2.4802 3.38163L0 5.947L2.37725 8.42491L4.84809 11L7.32829 8.44435L13 2.57509L10.5385 0L4.85745 5.86926Z" transform="translate(0 16)" fill="#2BA4A7"/>
<path d="M4.85745 5.86926L2.4802 3.38163L0 5.947L2.37725 8.42491L4.84809 11L7.32829 8.43463L13 2.57509L10.5385 0L4.85745 5.86926Z" transform="translate(0 33)" fill="#2BA4A7"/>
</svg>
