<svg width="47" height="44" viewBox="0 0 47 44" fill="none" xmlns="http://www.w3.org/2000/svg"><path d="M46.883 1H16.117a.119.119 0 0 0-.117.118v2.764c0 .06.049.118.117.118h30.766A.119.119 0 0 0 47 3.882V1.118A.113.113 0 0 0 46.883 1zM16.12 10h15.76a.12.12 0 0 0 .12-.118V7.118A.12.12 0 0 0 31.88 7H16.12a.12.12 0 0 0-.12.118v2.764c0 .069.05.118.12.118zM46.883 18H16.117a.119.119 0 0 0-.117.118v2.764c0 .06.049.118.117.118h30.766a.119.119 0 0 0 .117-.118v-2.764a.113.113 0 0 0-.117-.118zM16.12 27h15.76a.12.12 0 0 0 .12-.118v-2.764a.12.12 0 0 0-.12-.118H16.12a.12.12 0 0 0-.12.118v2.764c0 .069.05.118.12.118zM46.883 34H16.117a.119.119 0 0 0-.117.118v2.764c0 .06.049.118.117.118h30.766a.119.119 0 0 0 .117-.118v-2.764a.113.113 0 0 0-.117-.118zM31.88 41H16.12a.12.12 0 0 0-.12.118v2.764c0 .06.05.118.12.118h15.76a.12.12 0 0 0 .12-.118v-2.764c-.01-.069-.06-.118-.12-.118zM4.857 5.87L2.48 3.381 0 5.947l2.377 2.478L4.848 11l2.48-2.556L13 2.575 10.539 0 4.857 5.87zM4.857 21.87L2.48 19.381 0 21.947l2.377 2.478L4.848 27l2.48-2.556L13 18.575 10.539 16l-5.682 5.87zM4.857 38.87L2.48 36.381 0 38.947l2.377 2.478L4.848 44l2.48-2.565L13 35.575 10.539 33l-5.682 5.87z" fill="#2BA4A7"/></svg>