<?xml version="1.0" encoding="utf-8"?>
<!-- Generator: Adobe Illustrator 21.1.0, SVG Export Plug-In . SVG Version: 6.00 Build 0)  -->
<svg version="1.1" id="Layer_1" xmlns="http://www.w3.org/2000/svg" xmlns:xlink="http://www.w3.org/1999/xlink" x="0px" y="0px"
	 viewBox="0 0 159 58" style="enable-background:new 0 0 159 58;" xml:space="preserve">
<style type="text/css">
	.st0{fill:#FFFFFF;}
	.st1{fill:#E6E6E6;}
	.st2{fill:#2BA4A7;}
	.st3{fill:#FFFFFF;filter:url(#Adobe_OpacityMaskFilter);}
	.st4{mask:url(#mask0);}
</style>
<path class="st0" d="M28.6,36.9h-1c-0.8,0-1-0.1-1.1-0.6l-3.8-11.8c-1.1-3.3-2.6-4.8-6.8-4.8H9.2L6.4,36.2c-0.1,0.5-0.3,0.7-0.8,0.7
	H4.5c-0.5,0-0.6-0.2-0.5-0.7l6.1-34.6c0-0.5,0.2-0.7,0.7-0.7h1.1c0.5,0,0.6,0.2,0.6,0.7l-2.8,16h6.3c0.4,0,0.9,0,1.3,0.1L31.9,1.6
	C32.3,1.1,32.6,1,33.3,1h1.2C35,1,35,1.3,34.7,1.7L19.5,18.2c3.1,0.7,4.5,2.6,5.5,5.5l4.2,12.6C29.2,36.6,29.1,36.9,28.6,36.9z"/>
<path class="st0" d="M47,5L36.7,23h15.4L48,5c-0.2-1-0.2-1-0.3-1.3L47,5z M56.8,36.7h-0.9c-0.7,0-1-0.1-1-0.6l-2.5-11.2H35.6
	l-6.4,11.2c-0.3,0.5-0.5,0.6-1.3,0.6H27c-0.6,0-0.6-0.3-0.4-0.6L46.8,1.1c0.3-0.5,0.5-0.6,1-0.6h1c0.5,0,0.7,0.1,0.8,0.6L57.3,36
	C57.4,36.4,57.3,36.7,56.8,36.7z"/>
<path class="st0" d="M85.2,24.4l4-22.8C89.3,1.2,89.5,1,90,1h1c0.5,0,0.7,0.2,0.6,0.7l-6.1,34.6c-0.1,0.5-0.3,0.7-0.8,0.7h-1
	c-0.4,0-0.5-0.1-0.7-0.4L69.9,10.7c-1.2-2.6-2.4-4.9-3.2-6.4h-0.2c-0.4,1.9-0.9,5.2-1.4,8.3l-3.9,23.6c-0.1,0.5-0.3,0.7-0.8,0.7h-1
	c-0.5,0-0.6-0.2-0.5-0.7l6.1-34.6C65.2,1.2,65.4,1,65.9,1h0.9c0.5,0,0.6,0.2,0.7,0.4l13,24.9c1.4,2.7,3.3,6,3.3,6"/>
<path class="st0" d="M144.7,24.4l4-22.8c0.1-0.5,0.3-0.6,0.8-0.6h1c0.5,0,0.7,0.2,0.6,0.7l-6.1,34.6c-0.1,0.5-0.3,0.7-0.8,0.7h-1
	c-0.4,0-0.5-0.1-0.7-0.4l-13.1-25.8c-1.2-2.6-2.4-4.9-3.2-6.4h-0.2c-0.4,1.9-0.9,5.2-1.4,8.3l-3.9,23.6c-0.1,0.5-0.3,0.7-0.8,0.7h-1
	c-0.5,0-0.6-0.2-0.5-0.7l6.1-34.6c0.1-0.5,0.2-0.7,0.7-0.7h0.9c0.5,0,0.6,0.2,0.7,0.4l13,24.9c1.4,2.7,3.3,6,3.3,6"/>
<path class="st0" d="M101.7,35.5c7.4,0,11.7-4.2,12.8-10.7l4.1-23.1c0.1-0.5,0.2-0.7,0.7-0.7h1.1c0.5,0,0.7,0.2,0.6,0.7L116.8,25
	c-1.4,7.8-6.5,12.6-15.4,12.6c-8.9,0-12.5-5.3-11.1-13.1l4-22.9C94.4,1.2,94.6,1,95.1,1h1.1c0.5,0,0.6,0.2,0.6,0.7l-4.1,23.1
	C91.4,31.3,94.3,35.5,101.7,35.5z"/>
<path class="st0" d="M156.9,1h1.1c0.5,0,0.6,0.2,0.6,0.7l-6.1,34.6c-0.1,0.5-0.3,0.7-0.8,0.7h-1.1c-0.5,0-0.6-0.2-0.5-0.7l6.1-34.6
	C156.2,1.2,156.4,1,156.9,1z"/>
<path class="st1" d="M5.2,48.7c-0.1-0.1-0.2-0.3-0.3-0.3c-0.1-0.1-0.3-0.2-0.4-0.2c-0.2,0-0.3-0.1-0.5-0.1c-0.2,0-0.4,0-0.5,0.1
	c-0.2,0-0.3,0.1-0.4,0.2c-0.1,0.1-0.2,0.2-0.3,0.3c-0.1,0.1-0.1,0.3-0.1,0.4c0,0.2,0.1,0.3,0.2,0.5c0.1,0.1,0.3,0.2,0.6,0.3l1.3,0.5
	c0.4,0.1,0.7,0.4,0.9,0.7c0.2,0.3,0.3,0.7,0.3,1.1c0,0.4-0.1,0.7-0.2,1c-0.1,0.3-0.3,0.6-0.6,0.8c-0.3,0.2-0.6,0.4-0.9,0.5
	c-0.4,0.1-0.7,0.2-1.2,0.2c-0.3,0-0.5,0-0.7-0.1c-0.2,0-0.5-0.1-0.7-0.2c-0.2-0.1-0.4-0.2-0.5-0.3c-0.1-0.1-0.3-0.3-0.3-0.4H0
	l0.3-1.2h1.5c0,0.2,0,0.3,0.1,0.5C1.9,53,2,53.1,2.1,53.2c0.1,0.1,0.3,0.2,0.5,0.2c0.2,0,0.4,0.1,0.6,0.1c0.2,0,0.4,0,0.6-0.1
	c0.2-0.1,0.3-0.1,0.5-0.2c0.1-0.1,0.2-0.2,0.3-0.4c0.1-0.1,0.1-0.3,0.1-0.5c0-0.2-0.1-0.3-0.2-0.5c-0.1-0.1-0.3-0.3-0.6-0.4
	l-1.3-0.5c-0.4-0.2-0.7-0.4-0.9-0.7c-0.2-0.3-0.3-0.7-0.3-1c0-0.3,0.1-0.7,0.2-0.9c0.1-0.3,0.3-0.5,0.5-0.7c0.2-0.2,0.5-0.4,0.9-0.5
	C3.2,47.1,3.6,47,4.1,47c0.3,0,0.5,0,0.8,0.1c0.2,0.1,0.4,0.1,0.6,0.2c0.2,0.1,0.3,0.2,0.5,0.3C6,47.7,6.2,47.9,6.2,48H7l-0.3,1.2
	H5.3C5.3,49,5.2,48.9,5.2,48.7z"/>
<path class="st1" d="M8.9,51.2c0,0.3,0,0.6,0.1,0.9c0.1,0.3,0.2,0.5,0.4,0.7c0.2,0.2,0.4,0.3,0.6,0.4c0.2,0.1,0.5,0.2,0.8,0.2
	c0.3,0,0.7-0.1,1-0.2c0.3-0.1,0.6-0.4,0.8-0.6c0.2-0.3,0.4-0.6,0.6-0.9c0.1-0.4,0.2-0.8,0.2-1.2c0-0.3,0-0.6-0.1-0.9
	c-0.1-0.3-0.2-0.5-0.4-0.7c-0.2-0.2-0.4-0.3-0.6-0.4c-0.2-0.1-0.5-0.1-0.8-0.1c-0.3,0-0.7,0.1-1,0.2c-0.3,0.1-0.6,0.3-0.8,0.6
	c-0.2,0.3-0.4,0.6-0.6,0.9C9,50.3,8.9,50.7,8.9,51.2z M7.5,51.3c0-0.4,0.1-0.8,0.2-1.1c0.1-0.4,0.2-0.7,0.4-1
	c0.2-0.3,0.4-0.6,0.7-0.9C9,48,9.3,47.8,9.6,47.6c0.3-0.2,0.6-0.3,1-0.4c0.4-0.1,0.7-0.2,1.1-0.2c0.5,0,0.9,0.1,1.3,0.3
	c0.4,0.2,0.8,0.4,1.1,0.7c0.3,0.3,0.5,0.6,0.7,1c0.2,0.4,0.3,0.8,0.3,1.3c0,0.4-0.1,0.8-0.2,1.2c-0.1,0.4-0.2,0.7-0.4,1
	c-0.2,0.3-0.4,0.6-0.7,0.9c-0.3,0.3-0.5,0.5-0.8,0.7c-0.3,0.2-0.6,0.3-1,0.4c-0.4,0.1-0.7,0.2-1.1,0.2c-0.5,0-0.9-0.1-1.3-0.3
	c-0.4-0.2-0.8-0.4-1-0.7c-0.3-0.3-0.5-0.6-0.7-1C7.6,52.2,7.5,51.7,7.5,51.3z"/>
<path class="st1" d="M15.9,47.2h1.5l0.3-1.3c0.1-0.4,0.2-0.8,0.4-1.1c0.2-0.3,0.4-0.6,0.7-0.8c0.3-0.2,0.5-0.3,0.8-0.4
	c0.3-0.1,0.7-0.1,1-0.1c0.2,0,0.4,0,0.6,0c0.2,0,0.4,0.1,0.5,0.1c0.2,0,0.3,0.1,0.4,0.1c0.1,0,0.2,0.1,0.3,0.1L21.7,45
	c-0.1-0.1-0.3-0.1-0.5-0.2c-0.2-0.1-0.4-0.1-0.7-0.1c-0.4,0-0.7,0.1-0.9,0.3c-0.3,0.2-0.4,0.6-0.6,1.1l-0.3,1.2h2l-0.3,1.2h-1.9
	l-2.1,9.2H15l2.1-9.2h-1.5L15.9,47.2z"/>
<path class="st1" d="M22.3,47.3h1.2l0.4-1.7l1.5-0.6l-0.5,2.3h1.5L26,48.5h-1.5l-0.9,3.9c0,0.1,0,0.2-0.1,0.3c0,0.1,0,0.2,0,0.3
	c0,0.2,0.1,0.4,0.2,0.4c0.1,0.1,0.3,0.1,0.5,0.1c0.3,0,0.6-0.1,0.9-0.2l0.1,1c-0.2,0.1-0.5,0.2-0.7,0.3c-0.2,0.1-0.5,0.1-0.8,0.1
	c-0.3,0-0.6,0-0.8-0.1c-0.2-0.1-0.4-0.2-0.6-0.4c-0.2-0.2-0.3-0.4-0.3-0.6c-0.1-0.3,0-0.6,0.1-1l1-4.1H22L22.3,47.3z"/>
<path class="st1" d="M27.3,47.5h2.6l-0.3,1.2h-0.6l0.2,4.3l2.9-5.5h1.3l0.3,5.5l2.3-4.3h-0.7l0.3-1.2h2.6l-0.3,1.2h-0.6l-3.3,6.1
	h-1.4l-0.3-5.5h0l-2.9,5.5h-1.4l-0.5-6.1H27L27.3,47.5z"/>
<path class="st1" d="M41.1,53.3c0.2,0,0.3,0,0.5-0.1c0.2,0,0.3-0.1,0.5-0.2c0.2-0.1,0.3-0.1,0.5-0.2c0.1-0.1,0.3-0.2,0.4-0.3
	l0.9-3.8c-0.1-0.2-0.3-0.3-0.6-0.4c-0.3-0.1-0.6-0.2-1-0.2c-0.4,0-0.7,0.1-1.1,0.2c-0.3,0.1-0.7,0.4-0.9,0.6c-0.3,0.3-0.5,0.6-0.7,1
	c-0.2,0.4-0.3,0.9-0.3,1.4c0,0.3,0,0.6,0.1,0.8c0.1,0.2,0.2,0.4,0.3,0.6c0.1,0.2,0.3,0.3,0.5,0.4C40.6,53.2,40.9,53.3,41.1,53.3z
	 M42.7,53.9c-0.3,0.2-0.6,0.4-0.9,0.5c-0.3,0.1-0.6,0.2-1,0.2c-0.4,0-0.8-0.1-1.1-0.2c-0.3-0.2-0.6-0.4-0.9-0.6
	c-0.3-0.3-0.5-0.6-0.6-0.9C38.1,52.3,38,52,38,51.5c0-0.7,0.1-1.3,0.4-1.8c0.2-0.6,0.6-1,1-1.4c0.4-0.4,0.9-0.7,1.4-0.9
	c0.5-0.2,1.1-0.3,1.7-0.3c0.3,0,0.7,0.1,1,0.2c0.3,0.1,0.6,0.2,0.7,0.4l0.1-0.4h1.4l-1.4,6h1.1l-0.3,1.2h-2.5L42.7,53.9z"/>
<path class="st1" d="M52.6,49.5h-1.4l0.2-0.8c-0.4,0-0.8,0.1-1.1,0.3c-0.3,0.2-0.6,0.5-0.8,0.9l-0.8,3.6h1.2l-0.3,1.2H47l1.4-6H47
	l0.3-1.2H50l-0.2,1c0.1-0.1,0.3-0.3,0.4-0.4c0.1-0.1,0.3-0.2,0.5-0.3c0.2-0.1,0.3-0.2,0.5-0.2c0.2-0.1,0.4-0.1,0.5-0.1
	c0.2,0,0.3,0,0.4,0c0.1,0,0.2,0,0.4,0c0.1,0,0.3,0,0.6,0.1L52.6,49.5z"/>
<path class="st1" d="M57,48.2c-0.3,0-0.5,0-0.8,0.1c-0.2,0.1-0.5,0.2-0.7,0.4c-0.2,0.2-0.4,0.3-0.5,0.6c-0.2,0.2-0.3,0.4-0.4,0.7
	h4.1c0-0.3,0-0.5-0.1-0.8c-0.1-0.2-0.2-0.4-0.4-0.5c-0.2-0.1-0.3-0.3-0.6-0.3C57.5,48.2,57.2,48.2,57,48.2z M54.4,51
	c0,0.1,0,0.1,0,0.2c0,0,0,0.1,0,0.1c0,0.3,0,0.6,0.1,0.8c0.1,0.2,0.2,0.5,0.4,0.6c0.2,0.2,0.4,0.3,0.6,0.4c0.2,0.1,0.5,0.2,0.8,0.2
	c0.4,0,0.7-0.1,1.1-0.2c0.3-0.2,0.6-0.4,0.8-0.7l1,0.7c-0.2,0.2-0.3,0.4-0.6,0.6c-0.2,0.2-0.5,0.3-0.7,0.4c-0.3,0.1-0.5,0.2-0.8,0.3
	c-0.3,0.1-0.6,0.1-0.9,0.1c-0.4,0-0.9-0.1-1.2-0.2c-0.4-0.1-0.7-0.4-1-0.6c-0.3-0.3-0.5-0.6-0.7-1c-0.2-0.4-0.2-0.9-0.2-1.4
	c0-0.6,0.1-1.2,0.3-1.7c0.2-0.5,0.5-1,0.9-1.4c0.4-0.4,0.8-0.7,1.3-0.9c0.5-0.2,1.1-0.3,1.6-0.3c0.5,0,0.9,0.1,1.2,0.2
	c0.4,0.2,0.7,0.4,0.9,0.6c0.2,0.3,0.4,0.5,0.6,0.9c0.1,0.3,0.2,0.7,0.2,1c0,0.2,0,0.5,0,0.7c0,0.2-0.1,0.4-0.1,0.6H54.4z"/>
<path class="st1" d="M69.1,49.1h1.7l-0.2-2.8L69.1,49.1z M70.5,52.6h0.6L71,51.2h-2.9l-0.8,1.4h0.9l-0.4,1.9h-4.2l0.4-1.9h0.9
	l4.8-8.6h3l0.8,8.6h1.3l-0.4,1.9H70L70.5,52.6z"/>
<path class="st1" d="M81.5,54.7l0.4-1.6c-0.2,0.3-0.4,0.6-0.7,0.9c-0.3,0.3-0.7,0.5-1.1,0.7c-0.4,0.2-0.9,0.3-1.3,0.3
	c-0.6,0-1.2-0.1-1.7-0.3c-0.5-0.2-1-0.5-1.3-0.9c-0.4-0.4-0.7-0.9-0.9-1.4c-0.2-0.5-0.3-1.1-0.3-1.8c0-0.7,0.1-1.3,0.2-1.8
	c0.2-0.6,0.4-1.1,0.7-1.6c0.3-0.5,0.6-0.9,1-1.3c0.4-0.4,0.8-0.7,1.3-1c0.5-0.3,1-0.5,1.5-0.6c0.5-0.1,1-0.2,1.6-0.2
	c0.4,0,0.7,0,1.1,0.1c0.3,0.1,0.7,0.2,1,0.3c0.3,0.1,0.6,0.3,0.8,0.5c0.2,0.2,0.4,0.4,0.6,0.6h1.2L85,47.4h-2.7
	c-0.1-0.1-0.1-0.3-0.3-0.4c-0.1-0.1-0.2-0.3-0.4-0.4c-0.2-0.1-0.3-0.2-0.5-0.2c-0.2-0.1-0.4-0.1-0.6-0.1c-0.5,0-0.9,0.1-1.3,0.3
	c-0.4,0.2-0.8,0.5-1.1,0.9c-0.3,0.4-0.6,0.8-0.8,1.3c-0.2,0.5-0.3,1-0.3,1.5c0,0.3,0,0.7,0.1,1c0.1,0.3,0.2,0.5,0.4,0.8
	c0.2,0.2,0.4,0.4,0.7,0.5c0.3,0.1,0.5,0.2,0.9,0.2c0.3,0,0.6,0,0.9-0.1c0.3-0.1,0.6-0.2,0.8-0.4c0.2-0.2,0.4-0.3,0.6-0.5
	c0.2-0.2,0.3-0.4,0.4-0.6h-2.2l0.4-1.9h4.9l-1.3,5.6H81.5z"/>
<path class="st2" d="M5.3,37.7c-0.1,0-0.2,0-0.2,0c-0.7-0.1-1.1-0.8-1-1.5L10.2,1c0.1-0.7,0.9-1.1,1.6-1c0.7,0.1,1.1,0.8,1,1.5
	L6.5,36.6C6.4,37.2,5.9,37.7,5.3,37.7z"/>
<path class="st2" d="M4,13.7c-0.9-0.2-1.1-0.8-1-1.5L4.8,1C5,0.3,5.8-0.1,6.5,0c0.7,0.1,1.1,0.8,1,1.5l-2,11.2
	C5.4,13.3,4.9,13.9,4,13.7z"/>
<path class="st2" d="M10.5,37.7c-0.9-0.2-1.1-0.8-1-1.5L11.3,25c0.1-0.7,0.9-1.1,1.6-1c0.7,0.1,1.1,0.8,1,1.5l-2,11.2
	C11.9,37.3,11.4,37.9,10.5,37.7z"/>
<defs>
	<filter id="Adobe_OpacityMaskFilter" filterUnits="userSpaceOnUse">
		<feColorMatrix  type="matrix" values="1 0 0 0 0  0 1 0 0 0  0 0 1 0 0  0 0 0 1 0"/>
	</filter>
</defs>
<mask maskUnits="userSpaceOnUse" id="mask0">
	<path class="st3" d="M10.5,37.7c-0.9-0.2-1.1-0.8-1-1.5L11.3,25c0.1-0.7,0.9-1.1,1.6-1c0.7,0.1,1.1,0.8,1,1.5l-2,11.2
		C11.9,37.3,11.4,37.9,10.5,37.7z"/>
</mask>
<g class="st4">
</g>
</svg>
