<svg width="159" height="58" viewBox="0 0 159 58" fill="none" xmlns="http://www.w3.org/2000/svg"><path fill-rule="evenodd" clip-rule="evenodd" d="M28.609 36.898h-.96c-.76 0-.962-.1-1.114-.554L22.692 24.56c-1.112-3.336-2.577-4.802-6.827-4.802H9.244L6.362 36.241c-.103.506-.304.657-.76.657H4.54c-.505 0-.605-.151-.505-.657l6.118-34.584c.05-.507.202-.657.71-.657h1.06c.454 0 .607.15.556.656L9.646 17.634h6.271c.406 0 .86 0 1.264.05L31.946 1.555C32.298 1.1 32.551 1 33.311 1h1.161c.506 0 .557.302.205.656l-15.22 16.535c3.085.707 4.499 2.579 5.46 5.462l4.196 12.588c.103.352 0 .657-.504.657z" fill="#434343"/><path fill-rule="evenodd" clip-rule="evenodd" d="M47.023 4.999L36.656 22.951H52.08L48.034 4.998c-.228-1.017-.228-1.017-.278-1.272L47.023 5zm9.759 31.652h-.86c-.707 0-.96-.101-1.012-.555L52.382 24.92H35.596l-6.423 11.176c-.25.454-.504.555-1.262.555H27c-.557 0-.609-.254-.355-.607L46.77 1.106c.253-.457.506-.606.96-.606h1.013c.454 0 .656.15.758.606l7.838 34.938c.05.354-.052.607-.557.607zM85.176 24.411L89.22 1.606c.102-.456.253-.606.759-.606h1.011c.506 0 .656.15.555.656L85.43 36.242c-.102.506-.254.657-.76.657h-1.009c-.356 0-.506-.052-.66-.404L69.93 10.744c-1.162-2.567-2.423-4.881-3.158-6.408h-.151c-.355 1.921-.866 5.163-1.37 8.35L61.312 36.24c-.103.506-.255.657-.76.657h-1.01c-.507 0-.608-.151-.507-.657l6.117-34.584c.052-.507.205-.657.71-.657h.86c.455 0 .605.202.707.353L80.472 26.28c1.418 2.679 3.311 5.979 3.311 5.979M144.676 24.411l4.045-22.805c.103-.456.252-.606.758-.606h1.013c.505 0 .655.15.555.656l-6.118 34.585c-.1.506-.253.657-.758.657h-1.01c-.356 0-.506-.052-.66-.404l-13.07-25.75c-1.164-2.567-2.425-4.881-3.16-6.408h-.151c-.354 1.921-.865 5.163-1.37 8.35l-3.94 23.555c-.1.506-.254.657-.758.657h-1.01c-.506 0-.609-.151-.506-.657l6.117-34.584c.052-.507.204-.657.71-.657h.86c.453 0 .606.202.707.353L139.97 26.28c1.418 2.679 3.312 5.979 3.312 5.979M101.71 35.483c7.387 0 11.686-4.198 12.845-10.72l4.097-23.107c.051-.505.25-.656.707-.656h1.063c.505 0 .652.15.557.656l-4.15 23.36c-1.362 7.838-6.523 12.64-15.423 12.64-8.95 0-12.486-5.308-11.123-13.146l4.045-22.854c.103-.505.254-.656.76-.656h1.061c.455 0 .605.15.558.656L92.56 24.763c-1.112 6.523 1.721 10.72 9.15 10.72zM156.863 1h1.063c.455 0 .606.15.559.656l-6.123 34.585c-.103.506-.304.657-.758.657h-1.064c-.506 0-.604-.151-.506-.657l6.122-34.584c.051-.507.205-.657.707-.657z" fill="#434343"/><path fill-rule="evenodd" clip-rule="evenodd" d="M5.18 48.73a1.016 1.016 0 0 0-.276-.349 1.233 1.233 0 0 0-.415-.214 2.06 2.06 0 0 0-1.042-.008 1.37 1.37 0 0 0-.437.198 1.028 1.028 0 0 0-.294.318.834.834 0 0 0-.107.423c0 .184.059.338.176.46.117.123.304.235.558.337l1.335.476c.407.148.715.378.928.69.213.31.317.688.317 1.13 0 .397-.072.746-.218 1.047-.144.299-.346.55-.604.754a2.664 2.664 0 0 1-.925.457 4.287 4.287 0 0 1-1.173.15c-.258 0-.505-.02-.742-.061a3.025 3.025 0 0 1-.653-.19 2.065 2.065 0 0 1-.526-.318 1.406 1.406 0 0 1-.349-.44H0l.283-1.191h1.46c-.022.18 0 .34.07.477.07.14.169.256.298.352.128.094.281.164.46.21.177.046.365.069.564.069.199 0 .384-.025.558-.076.171-.051.323-.125.451-.222a1.018 1.018 0 0 0 .423-.851.72.72 0 0 0-.187-.481c-.125-.145-.318-.263-.58-.357l-1.274-.464c-.411-.16-.726-.397-.949-.71a1.764 1.764 0 0 1-.332-1.047c0-.342.06-.653.181-.934a1.94 1.94 0 0 1 .532-.728c.235-.202.53-.36.887-.47A4.137 4.137 0 0 1 4.082 47c.273 0 .525.028.755.08.231.053.436.125.617.219.179.092.335.199.464.321s.232.255.311.399h.776l-.285 1.189H5.287a1.14 1.14 0 0 0-.107-.477zM8.947 51.181c0 .323.048.616.143.882.094.266.226.491.397.678.171.187.376.332.616.436.24.105.503.156.789.156.336 0 .665-.073.987-.22.32-.148.602-.354.849-.617.243-.263.44-.579.59-.948.15-.37.224-.775.224-1.219 0-.322-.049-.613-.148-.872a1.972 1.972 0 0 0-.412-.664 1.804 1.804 0 0 0-.62-.426 2.012 2.012 0 0 0-.778-.148c-.341 0-.67.072-.985.217a2.663 2.663 0 0 0-.841.61 2.94 2.94 0 0 0-.589.937 3.156 3.156 0 0 0-.222 1.198zm-1.447.097a4.327 4.327 0 0 1 1.229-3.032 4.185 4.185 0 0 1 1.841-1.093A3.946 3.946 0 0 1 11.667 47c.476 0 .916.084 1.322.253.406.169.756.4 1.053.692a3.214 3.214 0 0 1 .947 2.302 4.365 4.365 0 0 1-1.232 3.059 4.012 4.012 0 0 1-.848.672 4.293 4.293 0 0 1-.999.428 4 4 0 0 1-1.107.152c-.48 0-.921-.084-1.323-.253a3.15 3.15 0 0 1-1.735-1.737 3.377 3.377 0 0 1-.245-1.29zM15.921 47.244h1.468l.29-1.267c.101-.442.245-.821.43-1.134a2.7 2.7 0 0 1 .654-.769 2.46 2.46 0 0 1 .848-.436 3.553 3.553 0 0 1 1.017-.138 4.227 4.227 0 0 1 1.12.145c.153.041.29.087.41.135.12.049.22.095.303.141l-.713 1.067a1.842 1.842 0 0 0-.493-.208c-.211-.06-.438-.09-.682-.09-.37 0-.683.102-.942.308-.259.206-.446.556-.56 1.056l-.277 1.19h1.951l-.283 1.191h-1.938l-2.118 9.24H15l2.111-9.24h-1.473l.283-1.191zM22.283 47.312h1.198l.422-1.717L25.364 45l-.547 2.312h1.509l-.284 1.191h-1.508l-.915 3.869-.065.28c-.021.094-.031.194-.031.301 0 .207.057.353.169.44.114.086.292.128.537.128.263 0 .58-.078.948-.229l.118.989c-.246.117-.481.208-.707.274a2.63 2.63 0 0 1-.754.1c-.291 0-.556-.036-.796-.106a1.316 1.316 0 0 1-.595-.355 1.248 1.248 0 0 1-.313-.643c-.05-.265-.03-.592.057-.978l.996-4.07H22l.283-1.191zM27.285 47.5h2.622l-.283 1.192h-.554l.227 4.317 2.881-5.509h1.329l.284 5.51 2.311-4.318h-.664l.283-1.192h2.624l-.285 1.192h-.622l-3.336 6.089h-1.356l-.257-5.495h-.027l-2.866 5.495h-1.364l-.511-6.09H27l.284-1.191zM41.128 53.292c.17 0 .345-.022.523-.063a3.337 3.337 0 0 0 .965-.384c.144-.085.27-.175.381-.266l.892-3.835c-.12-.153-.306-.282-.56-.392-.253-.107-.585-.162-.996-.162-.356 0-.706.072-1.053.218a2.857 2.857 0 0 0-.927.631 3.212 3.212 0 0 0-.665 1.01c-.17.399-.256.852-.256 1.36 0 .295.041.558.126.792.083.233.197.43.345.593.149.161.326.284.537.369.209.086.439.129.688.129zm1.571.581a3.64 3.64 0 0 1-.93.459c-.311.1-.633.15-.965.15-.394 0-.76-.077-1.1-.228a2.787 2.787 0 0 1-.89-.624 2.916 2.916 0 0 1-.596-.93A3.029 3.029 0 0 1 38 51.547c0-.669.117-1.283.353-1.84a4.31 4.31 0 0 1 2.37-2.375A4.445 4.445 0 0 1 42.438 47c.346 0 .672.051.976.155.305.104.554.24.747.405l.09-.374h1.393l-1.386 5.981h1.114l-.27 1.19H42.59l.11-.484zM52.627 49.537h-1.405l.2-.845c-.447 0-.829.114-1.141.342-.315.229-.573.53-.776.903l-.83 3.6h1.19l-.27 1.19H47l1.384-5.98h-1.37l.284-1.191h2.705l-.228.983c.129-.147.268-.284.415-.412a2.92 2.92 0 0 1 .467-.328c.165-.092.335-.166.513-.218.178-.054.356-.081.537-.081a10.386 10.386 0 0 1 .812.032c.136.012.324.034.565.066l-.457 1.939zM56.965 48.177c-.277 0-.537.044-.778.131a2.413 2.413 0 0 0-.661.367 2.76 2.76 0 0 0-.526.554 3.1 3.1 0 0 0-.374.693h4.084a2.1 2.1 0 0 0-.114-.759 1.391 1.391 0 0 0-.355-.546 1.492 1.492 0 0 0-.556-.329 2.252 2.252 0 0 0-.72-.11zm-2.561 2.866c-.005.064-.009.12-.014.166a2.255 2.255 0 0 0 .135.941c.095.248.227.465.395.647a1.823 1.823 0 0 0 1.367.585c.368 0 .721-.074 1.055-.224.335-.151.615-.369.842-.654l1.024.747a2.931 2.931 0 0 1-.56.56 3.687 3.687 0 0 1-.72.426 4.186 4.186 0 0 1-.84.27 4.43 4.43 0 0 1-.911.093c-.443 0-.857-.074-1.242-.221a2.935 2.935 0 0 1-1.012-.643 2.97 2.97 0 0 1-.679-1.036A3.716 3.716 0 0 1 53 51.312c0-.594.103-1.154.314-1.678.211-.522.501-.98.872-1.37.372-.39.811-.699 1.32-.924a3.994 3.994 0 0 1 1.647-.34c.456 0 .863.078 1.221.232.357.155.661.359.91.613.249.253.439.546.568.88.129.331.194.673.194 1.024 0 .234-.013.462-.039.68-.025.22-.056.425-.093.614h-5.51zM69.127 49.15h1.681l-.207-2.783-1.474 2.782zm1.357 3.447h.581l-.11-1.446h-2.893l-.768 1.446h.879l-.438 1.896H63.5l.436-1.896h.887L69.592 44h3.016l.79 8.597h1.329l-.444 1.896h-4.235l.436-1.896zM81.491 54.688l.367-1.579a4.435 4.435 0 0 1-.716.862 3.37 3.37 0 0 1-1.08.676c-.427.17-.864.255-1.312.255a4.345 4.345 0 0 1-1.682-.321 4.018 4.018 0 0 1-1.346-.904 4.174 4.174 0 0 1-.897-1.394 4.812 4.812 0 0 1-.325-1.803c0-.655.083-1.271.249-1.845a6.464 6.464 0 0 1 .69-1.582c.291-.48.638-.908 1.037-1.287a6.51 6.51 0 0 1 1.297-.959c.467-.26.958-.46 1.472-.599a5.992 5.992 0 0 1 1.56-.208 4.895 4.895 0 0 1 2.012.434c.297.136.562.295.795.476.233.183.427.377.584.579h1.233l-.443 1.897h-2.693a1.697 1.697 0 0 0-.252-.416 1.7 1.7 0 0 0-.391-.352 2.034 2.034 0 0 0-1.142-.332c-.471 0-.919.11-1.343.332a3.77 3.77 0 0 0-1.115.885 4.41 4.41 0 0 0-.76 1.267c-.19.476-.285.969-.285 1.481 0 .346.047.666.142.956.095.29.232.543.408.758.178.214.396.381.651.501.256.12.545.181.868.181.301 0 .595-.046.884-.136.288-.09.553-.215.795-.374a2.82 2.82 0 0 0 .616-.539c.17-.201.297-.405.385-.614h-2.208l.436-1.895h4.88l-1.301 5.599h-2.07z" fill="#565656"/><path fill-rule="evenodd" clip-rule="evenodd" d="M5.268 37.674a1.267 1.267 0 0 1-1.248-1.49l6.199-35.15c.125-.688.931-1.137 1.62-1.014a1.267 1.267 0 0 1 1.02 1.472L6.512 36.634a1.266 1.266 0 0 1-1.244 1.04zM4.05 13.73c-.867-.157-1.146-.784-1.022-1.472L4.842 1.034C4.967.346 5.773-.103 6.462.02a1.267 1.267 0 0 1 1.02 1.472L5.52 12.709c-.11.61-.604 1.176-1.47 1.02zM10.55 37.73c-.867-.157-1.146-.784-1.022-1.472l1.814-11.224c.125-.688.931-1.137 1.62-1.014a1.267 1.267 0 0 1 1.02 1.472L12.02 36.709c-.11.61-.604 1.176-1.47 1.02z" fill="#2BA4A7"/><mask id="a" maskUnits="userSpaceOnUse" x="9" y="24" width="6" height="14"><path fill-rule="evenodd" clip-rule="evenodd" d="M1.05 13.73c-.867-.157-1.146-.784-1.022-1.472L1.842 1.034C1.967.346 2.773-.103 3.462.02a1.267 1.267 0 0 1 1.02 1.472L2.52 12.709c-.11.61-.604 1.176-1.47 1.02z" transform="translate(9.5 24)" fill="#fff"/></mask></svg>