<?xml version="1.0" encoding="utf-8"?>
<!-- Generator: Adobe Illustrator 21.1.0, SVG Export Plug-In . SVG Version: 6.00 Build 0)  -->
<svg version="1.1" id="Layer_1" xmlns="http://www.w3.org/2000/svg" xmlns:xlink="http://www.w3.org/1999/xlink" x="0px" y="0px"
	 viewBox="0 0 159 58" style="enable-background:new 0 0 159 58;" xml:space="preserve">
<path style="fill:#FFFFFF;" d="M10.5,37.7c-0.9-0.2-1.1-0.8-1-1.5L11.3,25c0.1-0.7,0.9-1.1,1.6-1c0.7,0.1,1.1,0.8,1,1.5l-2,11.2
	C11.9,37.3,11.4,37.9,10.5,37.7z"/>
<path style="fill:#FFFFFF;" d="M28.6,36.9h-1c-0.8,0-1-0.1-1.1-0.6l-3.8-11.8c-1.1-3.3-2.6-4.8-6.8-4.8H9.2L6.4,36.2
	c-0.1,0.5-0.3,0.7-0.8,0.7H4.5c-0.5,0-0.6-0.2-0.5-0.7l6.1-34.6c0-0.5,0.2-0.7,0.7-0.7h1.1c0.5,0,0.6,0.2,0.6,0.7l-2.8,16H16
	c0.4,0,0.9,0,1.3,0.1L31.9,1.6C32.3,1.1,32.6,1,33.3,1h1.2C35,1,35,1.3,34.7,1.7L19.5,18.2c3.1,0.7,4.5,2.6,5.5,5.5l4.2,12.6
	C29.2,36.6,29.1,36.9,28.6,36.9z"/>
<path style="fill:#FFFFFF;" d="M47,5L36.7,23h15.4L48,5c-0.2-1-0.2-1-0.3-1.3L47,5z M56.8,36.7h-0.9c-0.7,0-1-0.1-1-0.6l-2.5-11.2
	H35.6l-6.4,11.2c-0.3,0.5-0.5,0.6-1.3,0.6H27c-0.6,0-0.6-0.3-0.4-0.6l20.2-35c0.3-0.5,0.5-0.6,1-0.6h1c0.5,0,0.7,0.1,0.8,0.6
	L57.3,36C57.4,36.4,57.3,36.7,56.8,36.7z M85.2,24.4l4-22.8C89.3,1.2,89.5,1,90,1h1c0.5,0,0.7,0.2,0.6,0.7l-6.1,34.6
	c-0.1,0.5-0.3,0.7-0.8,0.7h-1c-0.4,0-0.5-0.1-0.7-0.4L69.9,10.7c-1.2-2.6-2.4-4.9-3.2-6.4h-0.2c-0.4,1.9-0.9,5.2-1.4,8.3l-3.9,23.6
	c-0.1,0.5-0.3,0.7-0.8,0.7h-1c-0.5,0-0.6-0.2-0.5-0.7L65,1.6C65.2,1.2,65.4,1,65.9,1h0.9c0.5,0,0.6,0.2,0.7,0.4l13,24.9
	c1.4,2.7,3.3,6,3.3,6 M144.7,24.4l4-22.8c0.1-0.5,0.3-0.6,0.8-0.6h1c0.5,0,0.7,0.2,0.6,0.7L145,36.3c-0.1,0.5-0.3,0.7-0.8,0.7h-1
	c-0.4,0-0.5-0.1-0.7-0.4l-13.1-25.8c-1.2-2.6-2.4-4.9-3.2-6.4H126c-0.4,1.9-0.9,5.2-1.4,8.3l-3.9,23.6c-0.1,0.5-0.3,0.7-0.8,0.7h-1
	c-0.5,0-0.6-0.2-0.5-0.7l6.1-34.6c0.1-0.5,0.2-0.7,0.7-0.7h0.9c0.5,0,0.6,0.2,0.7,0.4l13,24.9c1.4,2.7,3.3,6,3.3,6 M101.7,35.5
	c7.4,0,11.7-4.2,12.8-10.7l4.1-23.1c0.1-0.5,0.2-0.7,0.7-0.7h1.1c0.5,0,0.7,0.2,0.6,0.7L116.8,25c-1.4,7.8-6.5,12.6-15.4,12.6
	s-12.5-5.3-11.1-13.1l4-22.9C94.4,1.2,94.6,1,95.1,1h1.1c0.5,0,0.6,0.2,0.6,0.7l-4.1,23.1C91.4,31.3,94.3,35.5,101.7,35.5z M156.9,1
	h1.1c0.5,0,0.6,0.2,0.6,0.7l-6.1,34.6c-0.1,0.5-0.3,0.7-0.8,0.7h-1.1c-0.5,0-0.6-0.2-0.5-0.7l6.1-34.6C156.2,1.2,156.4,1,156.9,1z"
	/>
<path style="fill:#E6E6E6;" d="M5.2,48.7c-0.1-0.1-0.2-0.3-0.3-0.3c-0.1-0.1-0.3-0.2-0.4-0.2c-0.2,0-0.3-0.1-0.5-0.1s-0.4,0-0.5,0.1
	c-0.2,0-0.3,0.1-0.4,0.2l-0.3,0.3c-0.1,0.1-0.1,0.3-0.1,0.4c0,0.2,0.1,0.3,0.2,0.5c0.1,0.1,0.3,0.2,0.6,0.3l1.3,0.5
	c0.4,0.1,0.7,0.4,0.9,0.7C5.9,51.4,6,51.8,6,52.2c0,0.4-0.1,0.7-0.2,1S5.5,53.8,5.2,54c-0.3,0.2-0.6,0.4-0.9,0.5
	c-0.4,0.1-0.7,0.2-1.2,0.2c-0.3,0-0.5,0-0.7-0.1c-0.2,0-0.5-0.1-0.7-0.2c-0.2-0.1-0.4-0.2-0.5-0.3s-0.3-0.3-0.3-0.4H0l0.3-1.2h1.5
	c0,0.2,0,0.3,0.1,0.5l0.2,0.2c0.1,0.1,0.3,0.2,0.5,0.2s0.4,0.1,0.6,0.1c0.2,0,0.4,0,0.6-0.1c0.2-0.1,0.3-0.1,0.5-0.2
	c0.1-0.1,0.2-0.2,0.3-0.4c0.1-0.1,0.1-0.3,0.1-0.5S4.6,52,4.5,51.8c-0.1-0.1-0.3-0.3-0.6-0.4l-1.3-0.5c-0.4-0.2-0.7-0.4-0.9-0.7
	s-0.3-0.7-0.3-1s0.1-0.7,0.2-0.9c0.1-0.3,0.3-0.5,0.5-0.7s0.5-0.4,0.9-0.5c0.2,0,0.6-0.1,1.1-0.1c0.3,0,0.5,0,0.8,0.1
	c0.2,0.1,0.4,0.1,0.6,0.2c0.2,0.1,0.3,0.2,0.5,0.3c0,0.1,0.2,0.3,0.2,0.4H7l-0.3,1.2H5.3C5.3,49,5.2,48.9,5.2,48.7z M8.9,51.2
	c0,0.3,0,0.6,0.1,0.9c0.1,0.3,0.2,0.5,0.4,0.7s0.4,0.3,0.6,0.4c0.2,0.1,0.5,0.2,0.8,0.2s0.7-0.1,1-0.2c0.3-0.1,0.6-0.4,0.8-0.6
	l0.6-0.9c0.1-0.4,0.2-0.8,0.2-1.2c0-0.3,0-0.6-0.1-0.9c-0.1-0.3-0.2-0.5-0.4-0.7s-0.4-0.3-0.6-0.4c-0.2-0.1-0.5-0.1-0.8-0.1
	s-0.7,0.1-1,0.2c-0.3,0.1-0.6,0.3-0.8,0.6l-0.6,0.9C9,50.3,8.9,50.7,8.9,51.2z M7.5,51.3c0-0.4,0.1-0.8,0.2-1.1
	c0.1-0.4,0.2-0.7,0.4-1c0.2-0.3,0.4-0.6,0.7-0.9C9,48,9.3,47.8,9.6,47.6s0.6-0.3,1-0.4c0.4-0.1,0.7-0.2,1.1-0.2
	c0.5,0,0.9,0.1,1.3,0.3c0.4,0.2,0.8,0.4,1.1,0.7s0.5,0.6,0.7,1s0.3,0.8,0.3,1.3c0,0.4-0.1,0.8-0.2,1.2c-0.1,0.4-0.2,0.7-0.4,1
	s-0.4,0.6-0.7,0.9c-0.3,0.3-0.5,0.5-0.8,0.7s-0.6,0.3-1,0.4c-0.4,0.1-0.7,0.2-1.1,0.2c-0.5,0-0.9-0.1-1.3-0.3
	c-0.4-0.2-0.8-0.4-1-0.7c-0.3-0.3-0.5-0.6-0.7-1C7.6,52.2,7.5,51.7,7.5,51.3z M15.9,47.2h1.5l0.3-1.3c0.1-0.4,0.2-0.8,0.4-1.1
	c0.2-0.3,0.4-0.6,0.7-0.8c0.3-0.2,0.5-0.3,0.8-0.4c0.3-0.1,0.7-0.1,1-0.1h0.6c0.2,0,0.4,0.1,0.5,0.1c0.2,0,0.3,0.1,0.4,0.1
	s0.2,0.1,0.3,0.1L21.7,45c-0.1-0.1-0.3-0.1-0.5-0.2s-0.4-0.1-0.7-0.1c-0.4,0-0.7,0.1-0.9,0.3c-0.3,0.2-0.4,0.6-0.6,1.1l-0.3,1.2h2
	l-0.3,1.2h-1.9l-2.1,9.2H15l2.1-9.2h-1.5C15.6,48.5,15.9,47.2,15.9,47.2z M22.3,47.3h1.2l0.4-1.7l1.5-0.6l-0.5,2.3h1.5L26,48.5h-1.5
	l-0.9,3.9c0,0.1,0,0.2-0.1,0.3V53c0,0.2,0.1,0.4,0.2,0.4c0.1,0.1,0.3,0.1,0.5,0.1c0.3,0,0.6-0.1,0.9-0.2l0.1,1
	c-0.2,0.1-0.5,0.2-0.7,0.3s-0.5,0.1-0.8,0.1s-0.6,0-0.8-0.1c-0.2-0.1-0.4-0.2-0.6-0.4S22,53.8,22,53.6c-0.1-0.3,0-0.6,0.1-1l1-4.1
	H22L22.3,47.3z M27.3,47.5h2.6l-0.3,1.2H29l0.2,4.3l2.9-5.5h1.3l0.3,5.5l2.3-4.3h-0.7l0.3-1.2h2.6l-0.3,1.2h-0.6L34,54.8h-1.4
	l-0.3-5.5l-2.9,5.5H28l-0.5-6.1H27L27.3,47.5z M41.1,53.3c0.2,0,0.3,0,0.5-0.1c0.2,0,0.3-0.1,0.5-0.2s0.3-0.1,0.5-0.2
	c0.1-0.1,0.3-0.2,0.4-0.3l0.9-3.8c-0.1-0.2-0.3-0.3-0.6-0.4c-0.3-0.1-0.6-0.2-1-0.2s-0.7,0.1-1.1,0.2c-0.3,0.1-0.7,0.4-0.9,0.6
	c-0.3,0.3-0.5,0.6-0.7,1s-0.3,0.9-0.3,1.4c0,0.3,0,0.6,0.1,0.8l0.3,0.6c0.1,0.2,0.3,0.3,0.5,0.4C40.6,53.2,40.9,53.3,41.1,53.3z
	 M42.7,53.9c-0.3,0.2-0.6,0.4-0.9,0.5c-0.3,0.1-0.6,0.2-1,0.2s-0.8-0.1-1.1-0.2l-0.9-0.6c-0.3-0.3-0.5-0.6-0.6-0.9
	C38.1,52.3,38,52,38,51.5c0-0.7,0.1-1.3,0.4-1.8c0.2-0.6,0.6-1,1-1.4s0.9-0.7,1.4-0.9s1.1-0.3,1.7-0.3c0.3,0,0.7,0.1,1,0.2
	c0.3,0.1,0.6,0.2,0.7,0.4l0.1-0.4h1.4l-1.4,6h1.1l-0.3,1.2h-2.5L42.7,53.9z M52.6,49.5h-1.4l0.2-0.8c-0.4,0-0.8,0.1-1.1,0.3
	s-0.6,0.5-0.8,0.9l-0.8,3.6h1.2l-0.3,1.2H47l1.4-6H47l0.3-1.2H50l-0.2,1l0.4-0.4c0.1-0.1,0.3-0.2,0.5-0.3s0.3-0.2,0.5-0.2
	c0.2-0.1,0.4-0.1,0.5-0.1h0.8c0.1,0,0.3,0,0.6,0.1L52.6,49.5z M57,48.2c-0.3,0-0.5,0-0.8,0.1c-0.2,0.1-0.5,0.2-0.7,0.4
	S55.1,49,55,49.3c-0.2,0.2-0.3,0.4-0.4,0.7h4.1c0-0.3,0-0.5-0.1-0.8c-0.1-0.2-0.2-0.4-0.4-0.5s-0.3-0.3-0.6-0.3
	C57.5,48.2,57.2,48.2,57,48.2z M54.4,51v0.3c0,0.3,0,0.6,0.1,0.8s0.2,0.5,0.4,0.6c0.2,0.2,0.4,0.3,0.6,0.4c0.2,0.1,0.5,0.2,0.8,0.2
	c0.4,0,0.7-0.1,1.1-0.2c0.3-0.2,0.6-0.4,0.8-0.7l1,0.7c-0.2,0.2-0.3,0.4-0.6,0.6c-0.2,0.2-0.5,0.3-0.7,0.4c-0.3,0.1-0.5,0.2-0.8,0.3
	s-0.6,0.1-0.9,0.1c-0.4,0-0.9-0.1-1.2-0.2c-0.4-0.1-0.7-0.4-1-0.6c-0.3-0.3-0.5-0.6-0.7-1s-0.2-0.9-0.2-1.4c0-0.6,0.1-1.2,0.3-1.7
	s0.5-1,0.9-1.4s0.8-0.7,1.3-0.9s1.1-0.3,1.6-0.3s0.9,0.1,1.2,0.2c0.4,0.2,0.7,0.4,0.9,0.6c0.2,0.3,0.4,0.5,0.6,0.9
	c0.1,0.3,0.2,0.7,0.2,1v0.7c0,0.2-0.1,0.4-0.1,0.6C60,51,54.4,51,54.4,51z M69.1,49.1h1.7l-0.2-2.8L69.1,49.1z M70.5,52.6h0.6
	L71,51.2h-2.9l-0.8,1.4h0.9l-0.4,1.9h-4.2l0.4-1.9h0.9l4.8-8.6h3l0.8,8.6h1.3l-0.4,1.9H70L70.5,52.6z M81.5,54.7l0.4-1.6
	c-0.2,0.3-0.4,0.6-0.7,0.9c-0.3,0.3-0.7,0.5-1.1,0.7S79.2,55,78.8,55c-0.6,0-1.2-0.1-1.7-0.3s-1-0.5-1.3-0.9
	c-0.4-0.4-0.7-0.9-0.9-1.4c-0.2-0.5-0.3-1.1-0.3-1.8s0.1-1.3,0.2-1.8c0.2-0.6,0.4-1.1,0.7-1.6c0.3-0.5,0.6-0.9,1-1.3s0.8-0.7,1.3-1
	s1-0.5,1.5-0.6s1-0.2,1.6-0.2c0.4,0,0.7,0,1.1,0.1c0.3,0.1,0.7,0.2,1,0.3s0.6,0.3,0.8,0.5l0.6,0.6h1.2L85,47.4h-2.7
	c-0.1-0.1-0.1-0.3-0.3-0.4c-0.1-0.1-0.2-0.3-0.4-0.4c-0.2-0.1-0.3-0.2-0.5-0.2c-0.2-0.1-0.4-0.1-0.6-0.1c-0.5,0-0.9,0.1-1.3,0.3
	s-0.8,0.5-1.1,0.9c-0.3,0.4-0.6,0.8-0.8,1.3c-0.2,0.5-0.3,1-0.3,1.5c0,0.3,0,0.7,0.1,1s0.2,0.5,0.4,0.8c0.2,0.2,0.4,0.4,0.7,0.5
	c0.3,0.1,0.5,0.2,0.9,0.2c0.3,0,0.6,0,0.9-0.1s0.6-0.2,0.8-0.4c0.2-0.2,0.4-0.3,0.6-0.5s0.3-0.4,0.4-0.6h-2.2l0.4-1.9h4.9l-1.3,5.6
	h-2.1L81.5,54.7z"/>
<path style="fill:#2BA4A7;" d="M5.3,37.7H5.1c-0.7-0.1-1.1-0.8-1-1.5L10.2,1c0.1-0.7,0.9-1.1,1.6-1c0.7,0.1,1.1,0.8,1,1.5L6.5,36.6
	C6.4,37.2,5.9,37.7,5.3,37.7z M4,13.7c-0.9-0.2-1.1-0.8-1-1.5L4.8,1c0.2-0.7,1-1.1,1.7-1s1.1,0.8,1,1.5l-2,11.2
	C5.4,13.3,4.9,13.9,4,13.7z M10.5,37.7c-0.9-0.2-1.1-0.8-1-1.5L11.3,25c0.1-0.7,0.9-1.1,1.6-1c0.7,0.1,1.1,0.8,1,1.5l-2,11.2
	C11.9,37.3,11.4,37.9,10.5,37.7z"/>
</svg>
