<svg width="159" height="58" viewBox="0 0 159 58" fill="none" xmlns="http://www.w3.org/2000/svg">
<path fill-rule="evenodd" clip-rule="evenodd" d="M24.6088 35.8985H23.6493C22.8883 35.8985 22.6873 35.798 22.5353 35.344L18.6918 23.5605C17.5798 20.2235 16.1148 18.758 11.8653 18.758H5.24379L2.36229 35.241C2.25929 35.747 2.05779 35.8985 1.60179 35.8985H0.53979C0.0347903 35.8985 -0.0652096 35.747 0.0347904 35.241L6.15329 0.6565C6.20279 0.1505 6.35479 0 6.86229 0H7.92279C8.37679 0 8.52979 0.1505 8.47929 0.6565L5.64629 16.634H11.9173C12.3228 16.634 12.7778 16.634 13.1808 16.6845L27.9463 0.5555C28.2983 0.0985 28.5508 0 29.3113 0H30.4723C30.9783 0 31.0288 0.3025 30.6773 0.6565L15.4573 17.1915C18.5423 17.8985 19.9558 19.7695 20.9178 22.6525L25.1133 35.241C25.2158 35.5935 25.1133 35.8985 24.6088 35.8985Z" transform="translate(4 1)" fill="#434343"/>
<path fill-rule="evenodd" clip-rule="evenodd" d="M20.5228 4.49898L10.1562 22.4505H25.5788L21.5343 4.49898C21.3062 3.48248 21.3062 3.48248 21.2557 3.22748L20.5228 4.49898ZM30.2817 36.1505H29.4217C28.7147 36.1505 28.4622 36.05 28.4102 35.596L25.8817 24.42H9.09574L2.67324 35.596C2.42224 36.05 2.16874 36.1505 1.41074 36.1505H0.500237C-0.0557631 36.1505 -0.107763 35.8975 0.146237 35.544L20.2702 0.6055C20.5227 0.1495 20.7762 0 21.2292 0H22.2427C22.6972 0 22.8992 0.1495 23.0007 0.6055L30.8392 35.544C30.8882 35.8975 30.7872 36.1505 30.2817 36.1505Z" transform="translate(26.5 0.5)" fill="#434343"/>
<path fill-rule="evenodd" clip-rule="evenodd" d="M26.1757 23.411L30.2207 0.6065C30.3232 0.1505 30.4737 0 30.9797 0H31.9912C32.4972 0 32.6467 0.1505 32.5457 0.6565L26.4297 35.241C26.3277 35.747 26.1757 35.8985 25.6707 35.8985H24.6612C24.3047 35.8985 24.1552 35.8465 24.0012 35.494L10.9292 9.744C9.76668 7.1765 8.50568 4.8625 7.77118 3.336H7.61968C7.26518 5.257 6.75418 8.499 6.25018 11.6855L2.31168 35.241C2.20918 35.747 2.05668 35.8985 1.55118 35.8985H0.541184C0.0351841 35.8985 -0.065816 35.747 0.035184 35.241L6.15218 0.6565C6.20418 0.1505 6.35668 0 6.86218 0H7.72118C8.17668 0 8.32718 0.202 8.42918 0.3535L21.4717 25.2805C22.8902 27.959 24.7832 31.259 24.7832 31.259" transform="translate(59 1)" fill="#434343"/>
<path fill-rule="evenodd" clip-rule="evenodd" d="M26.1763 23.411L30.2213 0.6065C30.3238 0.1505 30.4733 0 30.9788 0H31.9918C32.4973 0 32.6468 0.1505 32.5468 0.6565L26.4288 35.241C26.3288 35.747 26.1763 35.8985 25.6713 35.8985H24.6603C24.3053 35.8985 24.1548 35.8465 24.0013 35.494L10.9303 9.744C9.7673 7.1765 8.5058 4.8625 7.7718 3.336H7.6198C7.2663 5.257 6.7553 8.499 6.2503 11.6855L2.3108 35.241C2.2093 35.747 2.0563 35.8985 1.5523 35.8985H0.541298C0.0357979 35.8985 -0.0667021 35.747 0.0357979 35.241L6.1528 0.6565C6.2048 0.1505 6.3568 0 6.8628 0H7.7223C8.1763 0 8.3288 0.202 8.4298 0.3535L21.4713 25.2805C22.8893 27.959 24.7828 31.259 24.7828 31.259" transform="translate(118.5 1)" fill="#434343"/>
<path fill-rule="evenodd" clip-rule="evenodd" d="M11.7097 34.4825C19.0967 34.4825 23.3957 30.285 24.5547 23.7625L28.6522 0.6565C28.7032 0.1505 28.9012 0 29.3592 0H30.4217C30.9267 0 31.0742 0.1505 30.9792 0.6565L26.8297 24.0155C25.4667 31.8535 20.3057 36.6555 11.4062 36.6555C2.45667 36.6555 -1.08033 31.3475 0.283168 23.51L4.32817 0.6565C4.43067 0.1505 4.58167 0 5.08867 0H6.14917C6.60417 0 6.75417 0.1505 6.70717 0.6565L2.55917 23.7625C1.44717 30.285 4.28017 34.4825 11.7097 34.4825Z" transform="translate(90 1)" fill="#434343"/>
<path fill-rule="evenodd" clip-rule="evenodd" d="M6.86317 0H7.92617C8.38117 0 8.53167 0.1505 8.48467 0.6565L2.36167 35.241C2.25917 35.747 2.05767 35.8985 1.60367 35.8985H0.540172C0.0341724 35.8985 -0.0643276 35.747 0.0341724 35.241L6.15567 0.6565C6.20717 0.1505 6.36067 0 6.86317 0Z" transform="translate(150 1)" fill="#434343"/>
<path fill-rule="evenodd" clip-rule="evenodd" d="M5.1795 1.7305C5.1125 1.593 5.0205 1.4755 4.9035 1.381C4.785 1.287 4.6475 1.215 4.4885 1.167C4.3285 1.118 4.1565 1.095 3.9725 1.095C3.7875 1.095 3.6125 1.1155 3.447 1.159C3.2805 1.204 3.1355 1.2695 3.0105 1.3575C2.886 1.4455 2.7885 1.552 2.7155 1.675C2.644 1.8 2.609 1.9405 2.609 2.0975C2.609 2.282 2.668 2.4355 2.785 2.5575C2.9025 2.6805 3.089 2.793 3.343 2.8945L4.678 3.371C5.0845 3.5185 5.393 3.749 5.606 4.0605C5.8185 4.371 5.9235 4.749 5.9235 5.1915C5.9235 5.588 5.851 5.9365 5.7055 6.2375C5.5605 6.537 5.359 6.788 5.1005 6.992C4.8415 7.1945 4.5345 7.3465 4.176 7.4485C3.8185 7.55 3.427 7.5995 3.003 7.5995C2.7455 7.5995 2.498 7.579 2.2615 7.538C2.028 7.496 1.8095 7.4335 1.608 7.3475C1.408 7.2625 1.233 7.1565 1.082 7.0295C0.9325 6.9025 0.817 6.755 0.7335 6.59H0L0.283 5.3985H1.743C1.721 5.579 1.743 5.7395 1.813 5.876C1.8825 6.0155 1.982 6.132 2.111 6.2275C2.2395 6.3215 2.3925 6.3915 2.5705 6.4375C2.748 6.4835 2.9365 6.507 3.1355 6.507C3.3335 6.507 3.519 6.4815 3.6925 6.4305C3.8645 6.38 4.016 6.3055 4.1445 6.209C4.275 6.1125 4.377 5.992 4.453 5.8495C4.5305 5.706 4.567 5.542 4.567 5.3575C4.567 5.1815 4.505 5.0225 4.3805 4.877C4.2555 4.7315 4.062 4.6135 3.7995 4.5195L2.526 4.0555C2.115 3.8955 1.7995 3.659 1.577 3.3465C1.356 3.036 1.245 2.6865 1.245 2.299C1.245 1.957 1.3055 1.6455 1.426 1.3645C1.544 1.082 1.7225 0.841 1.9585 0.637C2.1935 0.4345 2.4885 0.2775 2.8445 0.167C3.1985 0.0555 3.6125 0 4.0825 0C4.355 0 4.607 0.0275 4.837 0.08C5.068 0.133 5.273 0.205 5.4535 0.299C5.633 0.3905 5.789 0.498 5.9175 0.62C6.047 0.742 6.15 0.875 6.229 1.0185H7.0045L6.7195 2.208H5.2875C5.283 2.0285 5.2475 1.87 5.1795 1.7305Z" transform="translate(0 47)" fill="#565656"/>
<path fill-rule="evenodd" clip-rule="evenodd" d="M1.44653 4.18149C1.44653 4.50399 1.49453 4.79699 1.58953 5.06349C1.68403 5.32899 1.81553 5.55449 1.98653 5.74099C2.15803 5.92849 2.36303 6.07299 2.60303 6.17749C2.84303 6.28199 3.10603 6.33299 3.39153 6.33299C3.72803 6.33299 4.05703 6.25999 4.37903 6.11249C4.69903 5.96499 4.98103 5.75899 5.22753 5.49599C5.47053 5.23349 5.66853 4.91699 5.81853 4.54799C5.96803 4.17849 6.04203 3.77349 6.04203 3.32899C6.04203 3.00699 5.99303 2.71599 5.89403 2.45699C5.79503 2.19899 5.65803 1.97749 5.48203 1.79299C5.30703 1.60849 5.10103 1.46699 4.86253 1.36699C4.62503 1.26849 4.36553 1.21899 4.08403 1.21899C3.74303 1.21899 3.41403 1.29099 3.09853 1.43649C2.78253 1.58199 2.50053 1.78499 2.25753 2.04599C2.01153 2.30649 1.81553 2.61799 1.66903 2.98349C1.52103 3.34849 1.44653 3.74699 1.44653 4.18149ZM0 4.2785C0 3.881 0.0505 3.501 0.15 3.1355C0.249 2.7715 0.39 2.4305 0.572 2.1115C0.7545 1.793 0.972 1.505 1.229 1.246C1.485 0.9885 1.7685 0.7665 2.077 0.582C2.3865 0.3975 2.717 0.255 3.0705 0.1535C3.423 0.052 3.789 0 4.167 0C4.643 0 5.0835 0.084 5.489 0.253C5.8955 0.422 6.2455 0.6525 6.542 0.9455C6.837 1.2375 7.0685 1.582 7.237 1.9755C7.4045 2.371 7.489 2.794 7.489 3.247C7.489 3.6475 7.439 4.033 7.338 4.4025C7.236 4.7715 7.0935 5.115 6.911 5.4345C6.7285 5.752 6.511 6.042 6.2575 6.3055C6.0035 6.5695 5.7205 6.793 5.4095 6.9775C5.098 7.161 4.7645 7.3045 4.4105 7.406C4.0545 7.508 3.6855 7.5575 3.303 7.5575C2.8225 7.5575 2.382 7.4745 1.9805 7.3055C1.5785 7.1375 1.2305 6.906 0.935 6.6105C0.64 6.3155 0.4105 5.9685 0.246 5.5685C0.083 5.17 0 4.7395 0 4.2785Z" transform="translate(7.5 47)" fill="#565656"/>
<path fill-rule="evenodd" clip-rule="evenodd" d="M0.921 3.744H2.3885L2.679 2.477C2.78 2.035 2.924 1.656 3.109 1.3425C3.293 1.029 3.5105 0.772 3.7625 0.574C4.0135 0.3755 4.296 0.23 4.611 0.1385C4.9235 0.0455 5.263 0 5.6275 0C5.8485 0 6.053 0.0135 6.24 0.041C6.4265 0.068 6.597 0.1035 6.748 0.1455C6.9005 0.186 7.0375 0.232 7.1575 0.28C7.2775 0.329 7.378 0.3755 7.461 0.4215L6.748 1.488C6.628 1.409 6.4635 1.3405 6.2545 1.28C6.044 1.2205 5.817 1.19 5.5725 1.19C5.2035 1.19 4.8895 1.2925 4.631 1.498C4.372 1.704 4.185 2.0545 4.071 2.5545L3.7935 3.744H5.745L5.4615 4.9355H3.524L1.4055 14.1745H0L2.111 4.9355H0.6375L0.921 3.744Z" transform="translate(15 43.5)" fill="#565656"/>
<path fill-rule="evenodd" clip-rule="evenodd" d="M0.283 2.3115H1.481L1.9035 0.5945L3.364 0L2.8165 2.3115H4.326L4.0415 3.503H2.534L1.619 7.372C1.597 7.4635 1.5745 7.5575 1.5535 7.652C1.533 7.746 1.5225 7.8465 1.5225 7.953C1.5225 8.16 1.5795 8.3065 1.6915 8.3925C1.8055 8.4785 1.9835 8.5205 2.2285 8.5205C2.492 8.5205 2.8085 8.443 3.177 8.292L3.2945 9.281C3.0495 9.3975 2.814 9.489 2.5885 9.5545C2.362 9.622 2.1115 9.655 1.8345 9.655C1.543 9.655 1.278 9.619 1.038 9.5485C0.7975 9.4765 0.599 9.359 0.4435 9.194C0.2865 9.031 0.1825 8.8165 0.1305 8.5515C0.0805 8.286 0.0995 7.959 0.187 7.573L1.183 3.503H0L0.283 2.3115Z" transform="translate(22 45)" fill="#565656"/>
<path fill-rule="evenodd" clip-rule="evenodd" d="M0.2845 0H2.907L2.624 1.1915H2.0695L2.2975 5.5095L5.178 0H6.5065L6.791 5.5095L9.102 1.1915H8.438L8.721 0H11.345L11.0605 1.1915H10.438L7.1025 7.281H5.746L5.489 1.786H5.4615L2.596 7.281H1.232L0.7205 1.1915H0L0.2845 0Z" transform="translate(27 47.5)" fill="#565656"/>
<path fill-rule="evenodd" clip-rule="evenodd" d="M3.12788 6.29199C3.29788 6.29199 3.47288 6.27049 3.65088 6.22949C3.82938 6.18749 3.99788 6.13449 4.15988 6.06999C4.32138 6.00549 4.47388 5.92949 4.61638 5.84549C4.75988 5.76049 4.88588 5.67049 4.99739 5.57899L5.88938 1.74399C5.76988 1.59149 5.58288 1.46199 5.32938 1.35249C5.07588 1.24499 4.74388 1.19049 4.33338 1.19049C3.97738 1.19049 3.62738 1.26249 3.28038 1.40799C2.93538 1.55349 2.62538 1.76349 2.35288 2.03899C2.08138 2.31249 1.85888 2.65049 1.68838 3.04849C1.51788 3.44799 1.43188 3.90099 1.43188 4.40899C1.43188 4.70399 1.47338 4.96749 1.55838 5.20099C1.64088 5.43449 1.75488 5.63149 1.90338 5.79399C2.05188 5.95499 2.22938 6.07799 2.43988 6.16299C2.64888 6.24899 2.87888 6.29199 3.12788 6.29199ZM4.6995 6.873C4.391 7.08 4.08 7.234 3.7685 7.332C3.4575 7.4325 3.1355 7.4825 2.8035 7.4825C2.4105 7.4825 2.0445 7.405 1.7035 7.254C1.361 7.1005 1.0645 6.8935 0.814 6.6305C0.562 6.367 0.363 6.0575 0.218 5.7C0.0725 5.3425 0 4.958 0 4.5475C0 3.878 0.117 3.2645 0.353 2.707C0.5885 2.1485 0.9075 1.668 1.312 1.2665C1.7155 0.865 2.1865 0.5535 2.7235 0.332C3.2615 0.11 3.832 0 4.437 0C4.7825 0 5.1085 0.0515 5.4125 0.155C5.718 0.2595 5.967 0.3945 6.1595 0.5605L6.25 0.1865H7.6425L6.257 6.167H7.3705L7.101 7.3575H4.5895L4.6995 6.873Z" transform="translate(38 47)" fill="#565656"/>
<path fill-rule="evenodd" clip-rule="evenodd" d="M5.627 2.0365H4.2215L4.422 1.1915C3.9745 1.1915 3.593 1.306 3.2805 1.5335C2.9655 1.763 2.708 2.0635 2.505 2.437L1.675 6.0365H2.8655L2.5955 7.227H0L1.384 1.2475H0.0135L0.298 0.056H3.0035L2.7745 1.039C2.904 0.892 3.043 0.755 3.19 0.627C3.3385 0.5 3.4935 0.391 3.657 0.299C3.8215 0.2065 3.992 0.133 4.17 0.081C4.3475 0.0275 4.5255 0 4.7065 0C4.8725 0 5.015 0.003 5.135 0.008C5.255 0.013 5.3825 0.0205 5.519 0.0315C5.655 0.044 5.843 0.0655 6.0835 0.098L5.627 2.0365Z" transform="translate(47 47.5)" fill="#565656"/>
<path fill-rule="evenodd" clip-rule="evenodd" d="M3.96548 1.17749C3.68848 1.17749 3.42848 1.22099 3.18748 1.30849C2.94448 1.39749 2.72498 1.51949 2.52598 1.67499C2.32698 1.83299 2.15248 2.01749 1.99998 2.22949C1.84748 2.44149 1.72248 2.67299 1.62598 2.92199H5.71048C5.71498 2.63499 5.67648 2.38299 5.59598 2.16299C5.51448 1.94449 5.39798 1.76199 5.24148 1.61699C5.08798 1.47149 4.90248 1.36149 4.68548 1.28799C4.46798 1.21499 4.22798 1.17749 3.96548 1.17749ZM1.404 4.043C1.3995 4.1075 1.395 4.163 1.3905 4.209C1.3865 4.255 1.383 4.299 1.383 4.341C1.383 4.631 1.4305 4.9015 1.5255 5.1505C1.62 5.3985 1.7525 5.6155 1.92 5.797C2.089 5.9795 2.289 6.123 2.5235 6.2275C2.756 6.33 3.011 6.382 3.287 6.382C3.6555 6.382 4.0085 6.3075 4.342 6.158C4.677 6.007 4.957 5.789 5.184 5.504L6.2085 6.251C6.0515 6.459 5.8645 6.6455 5.648 6.8115C5.43 6.9775 5.19 7.119 4.9275 7.2375C4.665 7.3545 4.3835 7.4445 4.0875 7.507C3.789 7.5695 3.4855 7.5995 3.177 7.5995C2.734 7.5995 2.3205 7.5265 1.935 7.379C1.5495 7.2315 1.2115 7.0165 0.9235 6.7355C0.6345 6.454 0.4095 6.1095 0.2445 5.7C0.0815 5.292 0 4.829 0 4.3125C0 3.718 0.1035 3.158 0.3145 2.634C0.525 2.1115 0.8155 1.6535 1.186 1.2645C1.558 0.874 1.997 0.5655 2.5055 0.34C3.0125 0.1135 3.562 0 4.153 0C4.609 0 5.0165 0.078 5.374 0.2325C5.731 0.387 6.035 0.591 6.284 0.845C6.533 1.0985 6.723 1.3915 6.852 1.7245C6.981 2.0565 7.0465 2.3985 7.0465 2.749C7.0465 2.9835 7.033 3.211 7.0075 3.4295C6.9825 3.6495 6.951 3.8545 6.9145 4.043H1.404Z" transform="translate(53 47)" fill="#565656"/>
<path fill-rule="evenodd" clip-rule="evenodd" d="M5.62744 5.14949H7.30844L7.10094 2.36749L5.62744 5.14949ZM6.984 8.597H7.565L7.455 7.1505H4.5615L3.7935 8.597H4.6725L4.235 10.4935H0L0.4355 8.597H1.3225L6.0915 0H9.108L9.8985 8.597H11.2265L10.7835 10.4935H6.5475L6.984 8.597Z" transform="translate(63.5 44)" fill="#565656"/>
<path fill-rule="evenodd" clip-rule="evenodd" d="M6.991 10.688L7.358 9.1095C7.173 9.4055 6.935 9.6925 6.6415 9.971C6.3475 10.2505 5.9875 10.476 5.562 10.647C5.135 10.8165 4.698 10.9015 4.25 10.9015C3.6455 10.9015 3.085 10.795 2.568 10.5805C2.0515 10.3665 1.6025 10.0655 1.2215 9.677C0.8405 9.2895 0.5425 8.8255 0.325 8.2825C0.108 7.7405 0 7.139 0 6.48C0 5.8245 0.083 5.209 0.249 4.635C0.415 4.061 0.645 3.5335 0.9385 3.053C1.2305 2.5735 1.5775 2.145 1.976 1.766C2.3745 1.388 2.8075 1.0685 3.2735 0.807C3.74 0.547 4.231 0.347 4.7455 0.2085C5.2595 0.0705 5.7795 0 6.305 0C6.665 0 7.017 0.0395 7.358 0.1145C7.698 0.1915 8.018 0.297 8.317 0.434C8.6145 0.5695 8.8795 0.729 9.1125 0.9105C9.345 1.093 9.5395 1.2865 9.6965 1.4885H10.929L10.4865 3.386H7.7935C7.734 3.2425 7.65 3.105 7.541 2.97C7.433 2.836 7.3025 2.718 7.15 2.6175C6.997 2.516 6.8255 2.436 6.634 2.3755C6.443 2.3155 6.234 2.2855 6.008 2.2855C5.537 2.2855 5.089 2.396 4.665 2.6175C4.2415 2.839 3.869 3.134 3.5505 3.503C3.2315 3.8725 2.9785 4.294 2.7895 4.77C2.6 5.2455 2.5055 5.7385 2.5055 6.251C2.5055 6.597 2.5525 6.9165 2.6475 7.2065C2.7425 7.4975 2.879 7.7495 3.0555 7.965C3.2335 8.179 3.451 8.346 3.706 8.466C3.9625 8.586 4.2515 8.647 4.5745 8.647C4.8755 8.647 5.1695 8.601 5.4585 8.511C5.746 8.421 6.011 8.296 6.2535 8.137C6.4965 7.978 6.7005 7.798 6.8695 7.598C7.0385 7.397 7.1665 7.1925 7.254 6.9845H5.0465L5.4825 5.089H10.3625L9.061 10.688H6.991Z" transform="translate(74.5 44)" fill="#565656"/>
<path fill-rule="evenodd" clip-rule="evenodd" d="M1.26793 37.6738C1.19293 37.6738 1.11693 37.6678 1.04193 37.6543C0.353426 37.5293 -0.104074 36.8708 0.0204263 36.1833L6.21893 1.03379C6.34393 0.345789 7.15043 -0.102711 7.83893 0.0202888C8.52693 0.144289 8.98343 0.803789 8.85943 1.49179L2.51243 36.6338C2.40143 37.2448 1.86893 37.6738 1.26793 37.6738Z" transform="translate(4)" fill="#2BA4A7"/>
<path fill-rule="evenodd" clip-rule="evenodd" d="M1.04962 13.7293C0.183413 13.5734 -0.0963779 12.9458 0.0281221 12.2583L1.84162 1.03379C1.96662 0.345789 2.77312 -0.102711 3.46162 0.0202888C4.14962 0.144289 4.60612 0.803789 4.48212 1.49179L2.52012 12.7088C2.40912 13.3198 1.91583 13.8852 1.04962 13.7293Z" transform="translate(3)" fill="#2BA4A7"/>
<path fill-rule="evenodd" clip-rule="evenodd" d="M1.04962 13.7293C0.183413 13.5734 -0.0963779 12.9458 0.0281221 12.2583L1.84162 1.03379C1.96662 0.345789 2.77312 -0.102711 3.46162 0.0202888C4.14962 0.144289 4.60612 0.803789 4.48212 1.49179L2.52012 12.7088C2.40912 13.3198 1.91583 13.8852 1.04962 13.7293Z" transform="translate(9.5 24)" fill="#2BA4A7"/>
<mask id="mask0" mask-type="alpha" maskUnits="userSpaceOnUse" x="9" y="24" width="6" height="14">
<path fill-rule="evenodd" clip-rule="evenodd" d="M1.04962 13.7293C0.183413 13.5734 -0.0963779 12.9458 0.0281221 12.2583L1.84162 1.03379C1.96662 0.345789 2.77312 -0.102711 3.46162 0.0202888C4.14962 0.144289 4.60612 0.803789 4.48212 1.49179L2.52012 12.7088C2.40912 13.3198 1.91583 13.8852 1.04962 13.7293Z" transform="translate(9.5 24)" fill="white"/>
</mask>
<g mask="url(#mask0)">
</g>
</svg>
