<svg width="53" height="53" viewBox="0 0 53 53" fill="none" xmlns="http://www.w3.org/2000/svg">
<path fill-rule="evenodd" clip-rule="evenodd" d="M0.833252 7C0.373291 7 0 6.60791 0 6.125V0.875C0 0.39209 0.373535 0 0.833496 0H4.16675C4.62671 0 5 0.39209 5 0.875V6.125C5 6.60791 4.62671 7 4.16675 7H0.833252ZM3.3335 1.75H1.66675V5.25H3.3335V1.75Z" transform="translate(20 27)" fill="white"/>
<path fill-rule="evenodd" clip-rule="evenodd" d="M4.16675 7H0.833252C0.373291 7 0 6.60791 0 6.125V0.875C0 0.39209 0.373291 0 0.833252 0H4.16675C4.62671 0 5 0.39209 5 0.875V6.125C5 6.60791 4.62671 7 4.16675 7ZM3.3335 1.75H1.66675V5.25H3.3335V1.75Z" transform="translate(20 16)" fill="white"/>
<path d="M1.3257 16.8719L13.9999 9.09583L26.6742 16.8719C26.8151 16.9587 26.9708 16.9998 27.1239 16.9998C27.4214 16.9998 27.7111 16.8451 27.8747 16.5658C28.1241 16.1417 27.9894 15.5924 27.5755 15.3382L14.8749 7.54613V1.78949H19.2499V3.57899H16.6249C16.142 3.57899 15.75 3.97983 15.75 4.47368C15.75 4.96753 16.142 5.36837 16.6249 5.36837H20.1249C20.6078 5.36837 20.9998 4.96753 20.9998 4.47368V0.894694C20.9998 0.400845 20.6078 0 20.1249 0H13.9999C13.517 0 13.125 0.400845 13.125 0.894694V7.54613L0.424486 15.3383C0.0106411 15.5924 -0.124094 16.1418 0.125279 16.5659C0.372807 16.9891 0.911748 17.1269 1.3257 16.8719Z" transform="translate(13)" fill="white"/>
<path d="M4.1667 7C4.62666 7 5 6.60799 5 6.12503V0.874974C5 0.392011 4.62666 0 4.1667 0H0.833301C0.37334 0 0 0.392011 0 0.874974V2.62492C0 3.10789 0.37334 3.4999 0.833301 3.4999C1.29326 3.4999 1.6666 3.10789 1.6666 2.62492V1.74995H3.3333V6.12503C3.3333 6.60799 3.70664 7 4.1667 7Z" transform="translate(5 27)" fill="white"/>
<path d="M2 26.1291V0.870935C2 0.390201 1.55197 0 1 0C0.448025 0 0 0.390201 0 0.870935V26.1291C0 26.6098 0.448025 27 1 27C1.55197 27 2 26.6098 2 26.1291Z" transform="translate(14 19)" fill="white"/>
<path fill-rule="evenodd" clip-rule="evenodd" d="M0.888916 13H31.1111C31.6018 13 32 12.584 32 12.0715C32 11.5588 31.6018 11.1428 31.1111 11.1428H23.1111V1.85718H24C24.4905 1.85718 24.8889 1.44116 24.8889 0.928467C24.8889 0.416016 24.4905 0 24 0H8C7.50928 0 7.11108 0.416016 7.11108 0.928467C7.11108 1.44116 7.50928 1.85718 8 1.85718H8.88892V11.1428H0.888916C0.398193 11.1428 0 11.5588 0 12.0713C0 12.584 0.398193 13 0.888916 13ZM16.8889 7.42847C17.3796 7.42847 17.7778 7.01245 17.7778 6.5C17.7778 5.98755 17.3796 5.57153 16.8889 5.57153V1.85718H21.3335V11.1428H16.8889V7.42847ZM15.1113 1.85693H10.6667V11.1428H15.1113V7.42822C14.6206 7.42822 14.2224 7.01221 14.2224 6.49976C14.2224 5.9873 14.6206 5.57129 15.1113 5.57129V1.85693Z" transform="translate(11 37)" fill="white"/>
<path fill-rule="evenodd" clip-rule="evenodd" d="M0.833252 0H4.16675C4.62671 0 5 0.39209 5 0.875V6.125C5 6.60791 4.62671 7 4.16675 7H0.833252C0.373291 7 0 6.60791 0 6.125V0.875C0 0.39209 0.373291 0 0.833252 0ZM1.6665 5.25H3.33325V1.75H1.6665V5.25Z" transform="translate(42 38)" fill="white"/>
<path fill-rule="evenodd" clip-rule="evenodd" d="M0.833252 0H4.16675C4.62671 0 5 0.39209 5 0.875V6.125C5 6.60791 4.62671 7 4.16675 7H0.833252C0.373291 7 0 6.60791 0 6.125V0.875C0 0.39209 0.373291 0 0.833252 0ZM1.6665 5.25H3.33325V1.75H1.6665V5.25Z" transform="translate(42 27)" fill="white"/>
<path d="M38.1137 0H0.886331C0.397099 0 0 0.447999 0 0.999941C0 1.55188 0.397099 2 0.886331 2H38.1137C38.6029 2 39 1.552 39 1.00006C39 0.448116 38.6029 0 38.1137 0Z" transform="translate(7 51)" fill="white"/>
<path d="M12.0715 0C11.5589 0 11.1429 0.389061 11.1429 0.868392V1.73678H0.92854C0.41601 1.73678 0 2.12584 0 2.60517C0 3.08451 0.41601 3.47357 0.92854 3.47357H11.1429V32.1316C11.1429 32.6109 11.5589 33 12.0715 33C12.584 33 13 32.6109 13 32.1316V0.86829C13 0.389061 12.584 0 12.0715 0Z" transform="translate(40 20)" fill="white"/>
<path fill-rule="evenodd" clip-rule="evenodd" d="M0.833252 7C0.373291 7 0 6.60791 0 6.125V0.875C0 0.39209 0.373291 0 0.833252 0H4.16675C4.62671 0 5 0.39209 5 0.875V6.125C5 6.60791 4.62671 7 4.16675 7H0.833252ZM3.3335 1.75H1.66675V5.25H3.3335V1.75Z" transform="translate(28 27)" fill="white"/>
<path fill-rule="evenodd" clip-rule="evenodd" d="M4.5 0C8.94873 0 9 11.2612 9 11.375C9 13.488 7.45117 15.2546 5.3999 15.6616V20.125C5.3999 20.6079 4.99683 21 4.5 21C4.00317 21 3.6001 20.6079 3.6001 20.125V15.6616C1.54883 15.2546 0 13.488 0 11.375C0 11.2612 0.0512695 0 4.5 0ZM1.80005 11.375C1.80005 12.8223 3.01147 14 4.5 14C5.98877 14 7.19995 12.8223 7.19995 11.375C7.19995 7.01587 5.99585 1.75 4.5 1.75C3.00439 1.75 1.80005 7.01587 1.80005 11.375Z" transform="translate(0 32)" fill="white"/>
<path d="M2 27.125V0.874968C2 0.392008 1.55197 0 1 0C0.448025 0 0 0.392008 0 0.874968V27.125C0 27.608 0.448025 28 1 28C1.55197 28 2 27.608 2 27.125Z" transform="translate(37 18)" fill="white"/>
<path fill-rule="evenodd" clip-rule="evenodd" d="M4.16675 7H0.833252C0.373291 7 0 6.60791 0 6.125V0.875C0 0.39209 0.373291 0 0.833252 0H4.16675C4.62671 0 5 0.39209 5 0.875V6.125C5 6.60791 4.62671 7 4.16675 7ZM3.3335 1.75H1.66675V5.25H3.3335V1.75Z" transform="translate(28 16)" fill="white"/>
<path d="M0.92854 12C1.44107 12 1.85708 11.5864 1.85708 11.0769V3.69221H12.0715C12.584 3.69221 13 3.27866 13 2.76916C13 2.25965 12.584 1.8461 12.0715 1.8461H1.85719V0.923052C1.85719 0.413551 1.44118 0 0.928649 0C0.416118 0 0 0.413334 0 0.922944V11.0769C0 11.5864 0.41601 12 0.92854 12Z" transform="translate(0 20)" fill="white"/>
</svg>
