<svg width="53" height="53" viewBox="0 0 53 53" fill="none" xmlns="http://www.w3.org/2000/svg"><path fill-rule="evenodd" clip-rule="evenodd" d="M20.833 34c-.46 0-.833-.392-.833-.875v-5.25c0-.483.374-.875.833-.875h3.334c.46 0 .833.392.833.875v5.25c0 .483-.373.875-.833.875h-3.334zm2.5-5.25h-1.666v3.5h1.666v-3.5zM24.167 23h-3.334c-.46 0-.833-.392-.833-.875v-5.25c0-.483.373-.875.833-.875h3.334c.46 0 .833.392.833.875v5.25c0 .483-.373.875-.833.875zm-.834-5.25h-1.666v3.5h1.666v-3.5z" fill="#fff"/><path d="M14.326 16.872L27 9.096l12.674 7.776c.141.087.297.128.45.128a.87.87 0 0 0 .75-.434.906.906 0 0 0-.298-1.228L27.875 7.546V1.79h4.375v1.79h-2.625c-.483 0-.875.4-.875.895 0 .494.392.894.875.894h3.5c.483 0 .875-.4.875-.894V.894A.885.885 0 0 0 33.125 0H27c-.483 0-.875.4-.875.895v6.651l-12.7 7.792a.906.906 0 0 0-.3 1.228.863.863 0 0 0 1.2.306zM9.167 34c.46 0 .833-.392.833-.875v-5.25c0-.483-.373-.875-.833-.875H5.833c-.46 0-.833.392-.833.875v1.75c0 .483.373.875.833.875.46 0 .834-.392.834-.875v-.875h1.666v4.375c0 .483.374.875.834.875zM16 45.13V19.87c0-.48-.448-.87-1-.87s-1 .39-1 .87v25.26c0 .48.448.87 1 .87s1-.39 1-.87z" fill="#fff"/><path fill-rule="evenodd" clip-rule="evenodd" d="M11.889 50H42.11c.49 0 .889-.416.889-.928 0-.513-.398-.93-.889-.93h-8v-9.285H35c.49 0 .889-.416.889-.929 0-.512-.399-.928-.889-.928H19c-.49 0-.889.416-.889.928 0 .513.398.93.889.93h.889v9.285h-8c-.49 0-.889.416-.889.928 0 .513.398.929.889.929zm16-5.572c.49 0 .889-.416.889-.928s-.398-.928-.89-.928v-3.715h4.445v9.286H27.89v-3.715zm-1.778-5.571h-4.444v9.286h4.444v-3.715c-.49 0-.889-.416-.889-.928 0-.513.399-.929.89-.929v-3.714zM42.833 38h3.334c.46 0 .833.392.833.875v5.25c0 .483-.373.875-.833.875h-3.334c-.46 0-.833-.392-.833-.875v-5.25c0-.483.373-.875.833-.875zm.834 5.25h1.666v-3.5h-1.666v3.5zM42.833 27h3.334c.46 0 .833.392.833.875v5.25c0 .483-.373.875-.833.875h-3.334c-.46 0-.833-.392-.833-.875v-5.25c0-.483.373-.875.833-.875zm.834 5.25h1.666v-3.5h-1.666v3.5z" fill="#fff"/><path d="M45.114 51H7.886C7.397 51 7 51.448 7 52s.397 1 .886 1h37.228c.489 0 .886-.448.886-1s-.397-1-.886-1zM52.072 20c-.513 0-.93.39-.93.868v.869H40.93c-.513 0-.929.389-.929.868 0 .48.416.869.929.869h10.214v28.658c0 .479.416.868.928.868.513 0 .929-.39.929-.868V20.868c0-.479-.416-.868-.928-.868z" fill="#fff"/><path fill-rule="evenodd" clip-rule="evenodd" d="M28.833 34c-.46 0-.833-.392-.833-.875v-5.25c0-.483.373-.875.833-.875h3.334c.46 0 .833.392.833.875v5.25c0 .483-.373.875-.833.875h-3.334zm2.5-5.25h-1.666v3.5h1.666v-3.5zM4.5 32C8.949 32 9 43.261 9 43.375c0 2.113-1.549 3.88-3.6 4.287v4.463a.888.888 0 0 1-.9.875.888.888 0 0 1-.9-.875v-4.463C1.55 47.255 0 45.488 0 43.375 0 43.261.051 32 4.5 32zM1.8 43.375C1.8 44.822 3.011 46 4.5 46s2.7-1.178 2.7-2.625c0-4.36-1.204-9.625-2.7-9.625-1.496 0-2.7 5.266-2.7 9.625z" fill="#fff"/><path d="M39 45.125v-26.25c0-.483-.448-.875-1-.875s-1 .392-1 .875v26.25c0 .483.448.875 1 .875s1-.392 1-.875z" fill="#fff"/><path fill-rule="evenodd" clip-rule="evenodd" d="M32.167 23h-3.334c-.46 0-.833-.392-.833-.875v-5.25c0-.483.373-.875.833-.875h3.334c.46 0 .833.392.833.875v5.25c0 .483-.373.875-.833.875zm-.834-5.25h-1.666v3.5h1.666v-3.5z" fill="#fff"/><path d="M.929 32a.926.926 0 0 0 .928-.923v-7.385h10.215A.926.926 0 0 0 13 22.77a.926.926 0 0 0-.928-.923H1.857v-.923A.926.926 0 0 0 .93 20a.926.926 0 0 0-.929.923v10.154c0 .51.416.923.929.923z" fill="#fff"/></svg>